<svg  width="20" height="20" xmlns="http://www.w3.org/2000/svg" viewBox="0 0 23.87 26.52"><title>email</title><path d="M17.5,25A12.82,12.82,0,0,1,11,26.52c-6,0-11-4.57-11-11.89C0,6.78,5.2,0,13.28,0c6.33,0,10.59,4.65,10.59,11,0,5.72-3.06,9.07-6.48,9.07-1.46,0-2.8-1-2.69-3.35h-.15c-1.27,2.25-2.94,3.35-5.13,3.35S5.5,18.29,5.5,15.28a8.8,8.8,0,0,1,8.62-9,9.19,9.19,0,0,1,3.89.8L16.77,14c-.54,2.89-.11,4.22,1.09,4.26,1.86,0,3.93-2.55,3.93-7,0-5.52-3.16-9.49-8.8-9.49C7.06,1.75,2.07,6.67,2.07,14.4c0,6.37,4,10.29,9.35,10.29a11,11,0,0,0,5.5-1.33Zm-2-16.46a5.85,5.85,0,0,0-1.82-.27c-3.2,0-5.78,3.16-5.78,6.86,0,1.67.79,2.89,2.4,2.89,2.11,0,4-2.82,4.44-5.18Z"/></svg>