<svg width="40" height="40" xmlns="http://www.w3.org/2000/svg" viewBox="0 0 26.06 27.2"><title>instagram</title><path d="M12.93,11.28a2.43,2.43,0,1,0,2.33,2.43A2.38,2.38,0,0,0,12.93,11.28Zm2.91-3.54H10A2.82,2.82,0,0,0,8,8.51a3.11,3.11,0,0,0-.75,2.16v6.08A3.11,3.11,0,0,0,8,19a2.91,2.91,0,0,0,2.07.78h5.77A2.83,2.83,0,0,0,17.91,19a2.88,2.88,0,0,0,.79-2.15V10.73A3.18,3.18,0,0,0,18,8.57,2.79,2.79,0,0,0,15.84,7.74Zm-2.91,9.73a3.69,3.69,0,0,1-3.61-3.76A3.69,3.69,0,0,1,12.93,10a3.76,3.76,0,0,1,0,7.52Zm3.76-6.8a.89.89,0,0,1,0-1.77.89.89,0,0,1,0,1.77ZM13,0C5.83,0,0,6.08,0,13.6S5.83,27.2,13,27.2s13-6.08,13-13.6A13.27,13.27,0,0,0,13,0ZM20,16.81A4.5,4.5,0,0,1,18.81,20a4,4,0,0,1-3,1.16H10.07A4,4,0,0,1,7.1,20a4.26,4.26,0,0,1-1.17-3.15V10.73a4,4,0,0,1,4.14-4.32h5.82a4,4,0,0,1,3,1.22A4.31,4.31,0,0,1,20,10.73Z"/></svg>