<svg width="20" height="20" xmlns="http://www.w3.org/2000/svg" viewBox="0 0 27.69 27.69"><title>phone</title><path d="M13.85,0A13.85,13.85,0,1,0,27.69,13.85,13.85,13.85,0,0,0,13.85,0Zm6.92,18.13a3.39,3.39,0,0,1-2.25,1.57c-.61.05-.61.5-4-.83S9,14.1,8.83,13.88a6.36,6.36,0,0,1-1.36-3.42A3.72,3.72,0,0,1,8.63,7.7a1.24,1.24,0,0,1,.89-.41c.22,0,.44,0,.64,0s.47-.11.75.55.94,2.29,1,2.45a.59.59,0,0,1,0,.58,2.06,2.06,0,0,1-.33.55c-.17.2-.35.43-.5.58s-.34.35-.14.68A9.91,9.91,0,0,0,12.84,15a9.38,9.38,0,0,0,2.68,1.64c.33.16.53.14.72-.09s.83-1,1.06-1.29.44-.28.75-.17S20,16,20.32,16.17s.56.25.64.38A2.67,2.67,0,0,1,20.77,18.13Z" fill-rule="evenodd"/></svg>