<svg width="40" height="40" xmlns="http://www.w3.org/2000/svg" viewBox="0 0 29.05 29.31"><title>twitter</title><path d="M16.54,8.93a3,3,0,0,0-2,3l0,.51-.5-.07A8.14,8.14,0,0,1,9.26,10l-.67-.67-.17.5a3,3,0,0,0,.63,3.06c.4.44.31.5-.39.24A1.34,1.34,0,0,0,8.18,13a3.81,3.81,0,0,0,.37,1.39,3.26,3.26,0,0,0,1.39,1.33l.5.23H9.85c-.57,0-.59,0-.53.23a3.07,3.07,0,0,0,1.9,1.7l.63.22-.55.33a5.73,5.73,0,0,1-2.72.76,2.46,2.46,0,0,0-.83.09,7.81,7.81,0,0,0,1.95.91,8.51,8.51,0,0,0,6.66-.77,9,9,0,0,0,3.38-4,10.94,10.94,0,0,0,.69-3.11c0-.47,0-.54.6-1.11a7.51,7.51,0,0,0,.71-.79c.1-.2.09-.2-.43,0-.86.31-1,.27-.56-.2A2.91,2.91,0,0,0,21.44,9s-.15,0-.32.12a5.7,5.7,0,0,1-.89.35l-.55.18-.5-.35a4.23,4.23,0,0,0-.86-.45A3.35,3.35,0,0,0,16.54,8.93Zm-2,20.38A14.66,14.66,0,1,1,29.05,14.65,14.6,14.6,0,0,1,14.53,29.31Z"/></svg>