<svg width="20" height="20" xmlns="http://www.w3.org/2000/svg" viewBox="0 0 29.81 29.81"><title>whatsapp</title><path d="M15.18,29.05A14.69,14.69,0,0,1,8.1,27.24L0,29.81,2.64,22a14.39,14.39,0,0,1-2.1-7.5A14.64,14.64,0,1,1,15.18,29.05Zm0-26.74A12.27,12.27,0,0,0,2.87,14.52a12,12,0,0,0,2.35,7.16L3.68,26.22l4.73-1.51a12.24,12.24,0,1,0,6.77-22.4Zm7.39,15.56c-.09-.15-.33-.24-.69-.42s-2.12-1-2.45-1.15-.57-.18-.81.17-.92,1.16-1.13,1.4-.42.27-.78.09a10,10,0,0,1-2.89-1.77,10.94,10.94,0,0,1-2-2.46c-.21-.36,0-.55.16-.73s.35-.42.53-.62a2.45,2.45,0,0,0,.36-.6.64.64,0,0,0,0-.62c-.09-.18-.81-1.93-1.1-2.64s-.6-.6-.81-.6-.45,0-.69,0a1.32,1.32,0,0,0-1,.45,4,4,0,0,0-1.25,3A6.91,6.91,0,0,0,9.5,15c.18.24,2.48,4,6.13,5.37s3.65.95,4.31.89a3.62,3.62,0,0,0,2.42-1.69,2.93,2.93,0,0,0,.21-1.69Z"/></svg>