<svg width="40" height="40" xmlns="http://www.w3.org/2000/svg" viewBox="0 0 30.99 31.26"><title>youtube</title><path d="M8.88,17H10v5.62h1.09V17h1.12V16H8.88Zm6.66-4.67a.51.51,0,0,0,.35-.12.49.49,0,0,0,.13-.34V8.9a.37.37,0,0,0-.13-.28.56.56,0,0,0-.35-.11.48.48,0,0,0-.32.11.34.34,0,0,0-.13.28v2.92a.47.47,0,0,0,.12.34A.43.43,0,0,0,15.54,12.28Zm2.39,5.38a1.06,1.06,0,0,0-.45.11,1.58,1.58,0,0,0-.41.34V16h-1v6.58h1V22.2a1.35,1.35,0,0,0,.41.33,1.19,1.19,0,0,0,.51.1.8.8,0,0,0,.65-.27,1.24,1.24,0,0,0,.23-.79v-2.7a1.38,1.38,0,0,0-.25-.9A.8.8,0,0,0,17.93,17.66Zm-.05,3.77a.51.51,0,0,1-.09.34.3.3,0,0,1-.26.1.64.64,0,0,1-.23-.05.79.79,0,0,1-.23-.17v-3a.81.81,0,0,1,.2-.14.39.39,0,0,1,.2-.05.38.38,0,0,1,.3.12.59.59,0,0,1,.11.38Zm-3.46,0h0a1.18,1.18,0,0,1-.29.26.56.56,0,0,1-.27.11.25.25,0,0,1-.2-.08.42.42,0,0,1-.06-.25V17.72h-1v4.06a1.07,1.07,0,0,0,.17.65.6.6,0,0,0,.5.21,1.21,1.21,0,0,0,.56-.15,2.51,2.51,0,0,0,.56-.45v.53h1V17.72h-1ZM15.5,0A15.63,15.63,0,1,0,31,15.63,15.57,15.57,0,0,0,15.5,0ZM18,7.72h1.08v4.1a.44.44,0,0,0,.07.27.27.27,0,0,0,.22.09.65.65,0,0,0,.3-.11,1.54,1.54,0,0,0,.34-.29V7.72h1.08v5.35H20v-.59a2.34,2.34,0,0,1-.63.49,1.25,1.25,0,0,1-.62.18.69.69,0,0,1-.57-.24,1.13,1.13,0,0,1-.19-.72ZM14,8.94h0a1.24,1.24,0,0,1,.43-1,1.83,1.83,0,0,1,1.18-.37,1.6,1.6,0,0,1,1.1.39,1.29,1.29,0,0,1,.43,1v2.77a1.38,1.38,0,0,1-.42,1.07,1.64,1.64,0,0,1-1.16.39,1.6,1.6,0,0,1-1.14-.4A1.44,1.44,0,0,1,14,11.71ZM11,5.82l.79,2.9h.08l.75-2.9h1.24l-1.42,4.24v3H11.25V10.2L9.8,5.82ZM25.21,21.08a3.48,3.48,0,0,1-3.47,3.5H9.67a3.48,3.48,0,0,1-3.47-3.5V18.26a3.49,3.49,0,0,1,3.47-3.51H21.74a3.49,3.49,0,0,1,3.47,3.51ZM20.83,17.6a1.45,1.45,0,0,0-1,.39,1.39,1.39,0,0,0-.41,1V21.2a1.57,1.57,0,0,0,.37,1.1,1.32,1.32,0,0,0,1,.4,1.43,1.43,0,0,0,1.08-.37,1.58,1.58,0,0,0,.36-1.13V21h-1v.22a1.1,1.1,0,0,1-.09.56.43.43,0,0,1-.34.12.34.34,0,0,1-.32-.14,1,1,0,0,1-.1-.54v-.91H22.2V19A1.46,1.46,0,0,0,21.85,18,1.38,1.38,0,0,0,20.83,17.6Zm.38,1.91h-.85V19a.68.68,0,0,1,.1-.43.39.39,0,0,1,.33-.13.36.36,0,0,1,.32.13.68.68,0,0,1,.1.43Z"/></svg>