<svg class="logo__svg" itemprop="logo" width="369" height="69" xmlns="http://www.w3.org/2000/svg" viewBox="0 0 81.35 15.03"><title>vooxer</title><path d="M22,1.2a6.84,6.84,0,0,0-6.86,6.92,6.86,6.86,0,1,0,13.71,0A6.84,6.84,0,0,0,22,1.2Zm0,10.55A3.45,3.45,0,0,1,18.6,8.12a3.43,3.43,0,1,1,6.85,0A3.46,3.46,0,0,1,22,11.75ZM37.22,1.2a6.84,6.84,0,0,0-6.86,6.92,6.86,6.86,0,1,0,13.71,0A6.84,6.84,0,0,0,37.22,1.2Zm0,10.55a3.45,3.45,0,0,1-3.43-3.63,3.43,3.43,0,1,1,6.85,0A3.46,3.46,0,0,1,37.22,11.75ZM52.81,7.93,58,.41C58.14.14,58,0,57.68,0H54.79a.49.49,0,0,0-.49.2L50.79,5.27l-2.24-3.4a.5.5,0,0,0-.49-.21H44.93c-.32,0-.46.13-.27.4L48.76,8l-4.31,6.28c-.19.27-.06.49.27.49h3.12a.57.57,0,0,0,.49-.3l2.46-3.81,2.45,3.82a.57.57,0,0,0,.49.29h3.13a.3.3,0,0,0,.27-.51ZM64.17,1.2A6.67,6.67,0,0,0,57.5,8.12a6.73,6.73,0,0,0,7,6.91,6.89,6.89,0,0,0,4.91-2c.22-.22.22-.41,0-.6l-1.19-1.15c-.19-.19-.35-.19-.59,0a4.57,4.57,0,0,1-2.81,1c-2.07,0-3.42-1-3.77-2.69h8.47c.81,0,.94-.59.94-1.64C70.45,4.29,68,1.2,64.17,1.2ZM61,7.13a3.13,3.13,0,0,1,3.21-2.88A3,3,0,0,1,67.3,7.13ZM81.16,1.82a2.83,2.83,0,0,0-1.78-.62A3.75,3.75,0,0,0,76,3.35L75.9,2c0-.24-.16-.32-.4-.32H72.88c-.24,0-.32,0-.32.24V14.28c0,.24.08.46.32.46h2.75a.52.52,0,0,0,.5-.46v-7a2.65,2.65,0,0,1,2.71-2.85,3.28,3.28,0,0,1,1.08.19.41.41,0,0,0,.58-.27l.8-2A.4.4,0,0,0,81.16,1.82ZM14.5,1.66H11.72c-.21,0-.4,0-.48.24L8,10.58,4.79,1.92c-.08-.21-.27-.26-.49-.26H.18c-.16,0-.24.12-.13.23L1.86,3.66l4.3,10.75a.52.52,0,0,0,.49.33H9.4a.53.53,0,0,0,.49-.35L14.82,2.05C14.93,1.75,14.8,1.66,14.5,1.66Z"></path></svg>