<svg width="21" height="32" xmlns="http://www.w3.org/2000/svg" viewBox="0 0 17.76 27.07"><title>map</title><path d="M8.88,0A8.93,8.93,0,0,0,1.41,13.74l4.49,7a5.38,5.38,0,0,0-1.78.94,2.57,2.57,0,0,0-1.06,2,3,3,0,0,0,1.85,2.49,8.49,8.49,0,0,0,4,.89,8.44,8.44,0,0,0,4-.89,3,3,0,0,0,1.85-2.49,2.6,2.6,0,0,0-1.06-2,5.75,5.75,0,0,0-1.77-.95l4.49-7a9,9,0,0,0,1-2.2.62.62,0,0,0-1.18-.35,7.48,7.48,0,0,1-.87,1.88L8.88,23.16,2.44,13.07a7.67,7.67,0,1,1,14.1-4.15.61.61,0,0,0,1.22,0v0A8.91,8.91,0,0,0,8.88,0Zm0,5.23a3.69,3.69,0,1,0,3.68,3.69A3.69,3.69,0,0,0,8.88,5.23Zm0,1.23A2.46,2.46,0,1,1,6.43,8.92,2.44,2.44,0,0,1,8.88,6.46ZM6.59,21.85l1.77,2.78a.63.63,0,0,0,.85.19.69.69,0,0,0,.19-.19l1.78-2.78a4.78,4.78,0,0,1,1.68.81,1.36,1.36,0,0,1,.62,1c0,.45-.37,1-1.2,1.41a7.51,7.51,0,0,1-3.4.74,7.51,7.51,0,0,1-3.4-.74c-.82-.44-1.19-1-1.19-1.41a1.35,1.35,0,0,1,.6-1A4.81,4.81,0,0,1,6.59,21.85Z"/></svg>