<svg  width="50" height="50" xmlns="http://www.w3.org/2000/svg" viewBox="0 0 50.06 50.06"><title>app</title><path d="M11,44.59a2.35,2.35,0,1,0,2.35-2.35A2.35,2.35,0,0,0,11,44.59Zm3.13,0a.78.78,0,1,1-.78-.78A.78.78,0,0,1,14.08,44.59ZM47.72,9.39H21.9a2.34,2.34,0,0,0-2.34,2.34V28.16a2.35,2.35,0,0,0,2.34,2.35H25V35.2a.77.77,0,0,0,.78.78.76.76,0,0,0,.39-.1l9.47-5.37h12a2.35,2.35,0,0,0,2.34-2.35V11.73A2.34,2.34,0,0,0,47.72,9.39Zm.78,18.77a.78.78,0,0,1-.78.78H35.46a.83.83,0,0,0-.38.1L26.6,33.86V29.73a.79.79,0,0,0-.79-.79H21.9a.78.78,0,0,1-.78-.78V11.73A.78.78,0,0,1,21.9,11H47.72a.78.78,0,0,1,.78.78ZM25,47.72a.78.78,0,0,1-.78.78H2.35a.79.79,0,0,1-.79-.78V2.35a.79.79,0,0,1,.79-.79h21.9a.78.78,0,0,1,.78.79V7.82H26.6V2.35A2.35,2.35,0,0,0,24.25,0H2.35A2.35,2.35,0,0,0,0,2.35V47.72a2.35,2.35,0,0,0,2.35,2.34h21.9a2.35,2.35,0,0,0,2.35-2.34V37.55H25ZM23.47,7.82V3.91a.78.78,0,0,0-.78-.78H3.91a.78.78,0,0,0-.78.78v36a.78.78,0,0,0,.78.78H22.69a.78.78,0,0,0,.78-.78V37.55H21.9v1.56H4.69V4.69H21.9V7.82Zm4.69,4.7A5.47,5.47,0,0,0,22.69,18c0,2.52,3.1,9.39,5.47,9.39s5.48-6.87,5.48-9.39A5.48,5.48,0,0,0,28.16,12.52Zm0,13.3c-.95-.19-3.93-5.35-3.93-7.83a3.91,3.91,0,0,1,7.82,0C32.07,20.47,29.1,25.63,28.18,25.82Zm0-10.18A2.35,2.35,0,1,0,30.51,18,2.36,2.36,0,0,0,28.16,15.64Zm0,3.13a.78.78,0,1,1,.78-.78A.78.78,0,0,1,28.16,18.77Zm15.65-6.25a3.13,3.13,0,1,0,3.12,3.12A3.13,3.13,0,0,0,43.81,12.52Zm0,4.69a1.57,1.57,0,1,1,1.56-1.57A1.57,1.57,0,0,1,43.81,17.21ZM43,25a.78.78,0,0,1-.78.78h-.78a.78.78,0,0,1-.78-.78V22.69a2.35,2.35,0,0,0-2.35-2.35h-.78a2.35,2.35,0,0,0-2.35,2.35V25a.78.78,0,0,1-.78.78H31.29v1.57h3.13A2.35,2.35,0,0,0,36.77,25V22.69a.78.78,0,0,1,.78-.79h.78a.78.78,0,0,1,.78.79V25a2.35,2.35,0,0,0,2.35,2.35h.78A2.35,2.35,0,0,0,44.59,25V20.34H43ZM7,32.85h3.13V31.29H7Zm4.69,0h7V31.29h-7Zm5.48-3.12V28.16H14.08v1.57ZM7,29.73h5.48V28.16H7Zm7,6.25H21.9V34.42H14.08ZM7,36h5.48V34.42H7Zm5.48-19.55h3.12a.79.79,0,0,0,.79-.79V11H18V9.39H7.82a.78.78,0,0,0-.78.78v13.3a.78.78,0,0,0,.78.78H18V22.69H16.43V20.34a.78.78,0,0,0-.79-.78H12.52a.78.78,0,0,0-.79.78v2.35H8.6V11h3.13v4.69A.79.79,0,0,0,12.52,16.43ZM13.3,11h1.56v3.91H13.3Zm0,10.17h1.56v1.57H13.3Z"/></svg>