<svg  width="49" height="50" xmlns="http://www.w3.org/2000/svg" viewBox="0 0 47.19 48.15"><title>brazil</title><path d="M17.58.91,17,.36l-.2.22-.21.26.62.47L16.62.84a.29.29,0,0,1-.17.13,2.81,2.81,0,0,1-.7.12h0a4.15,4.15,0,0,0-.69.09,1.92,1.92,0,0,0-.33.12,1.34,1.34,0,0,0-.29.23v0l0,0-.14.18-.09.15,0,.13a.67.67,0,0,0,0,.25h.75L14.16,2a.86.86,0,0,0-.06.3h.75L14.16,2l.62.27-.5-.45a.53.53,0,0,0-.12.18l.62.27-.5-.45.31.29-.25-.35-.06.06.31.29-.25-.35.1.13-.08-.14h0l.1.13-.08-.14.37.68-.36-.68.24.46V1.67a.41.41,0,0,0-.24.06l.24.46v0l.14-.5-.14,0v.52l.14-.5L14.67,2l.12-.3h0L14.67,2l.12-.3,0,.06,0-.06h0l0,.06,0-.06-.14-.08h0a3.28,3.28,0,0,0-.6-.33,1.48,1.48,0,0,0-.65-.16,1.16,1.16,0,0,0-.5.11,1.11,1.11,0,0,0-.52.58,1.46,1.46,0,0,0-.1.6v.1h0a2.1,2.1,0,0,0,.05.43,1.57,1.57,0,0,0,.29.66,3.82,3.82,0,0,0,.48.51h0l.15.14.25-.2-.29.13,0,.07.25-.2-.29.13L13.73,4h-.56a.61.61,0,0,0,.05.23L13.73,4h0l-.53-.23a.52.52,0,0,0-.05.23h.58l-.53-.23.4.18-.34-.28a.29.29,0,0,0-.06.1l.4.18-.34-.28.16.14-.15-.15h0l.16.14-.15-.15h0a1.49,1.49,0,0,1-.31.21l-.77.45-1.07.6h-.4l-.37,0-.11,0h0l0,.15,0-.15h0l0,.15,0-.15-.17.51.24-.48-.07,0-.17.51.24-.48-.35.7.37-.69-.2.37.29-.31-.09-.06-.2.37.29-.31,0,.05,0,0h0l0,.05,0,0a1.32,1.32,0,0,1-.12-.19l0-.09h0l-.36.1h.37a.28.28,0,0,0,0-.1l-.36.1h.37a1.19,1.19,0,0,0,0-.24.93.93,0,0,0-.1-.22,1.9,1.9,0,0,0-.31-.42v0h0a1.59,1.59,0,0,0-.37-.28,1.08,1.08,0,0,0-.3-.11,1.32,1.32,0,0,0-.27,0l-.33,0h0l-1.29.08h0c-.26,0-.52,0-.72.06l-.28,0-.13,0L6,3.71a1,1,0,0,0-.2.13h0a1.25,1.25,0,0,0-.28.36,1,1,0,0,0-.1.45,1.17,1.17,0,0,0,.21.65,1.43,1.43,0,0,0,.45.4L6.49,5l-.4.67.07,0h0l.2-.19-.25.12c0,.05,0,.07,0,.07l.2-.19-.25.12.48-.24H6.07a.62.62,0,0,0,0,.24l.48-.24h.07l-.5-.33a.64.64,0,0,0-.1.33h.6l-.5-.33.39.26-.15-.46a.44.44,0,0,0-.24.2l.39.26-.15-.46,0,.16,0-.16h0l0,.16,0-.16h0a1.53,1.53,0,0,0-.86.26,1.42,1.42,0,0,0-.34.35A1,1,0,0,0,5,6.1a1.1,1.1,0,0,0,.07.4,4.34,4.34,0,0,0,.53,1l.65-.44-.65.43a3.11,3.11,0,0,1,.18.3v0l.1,0h-.1v0l.1,0h-.1a1.52,1.52,0,0,1-.11.25h0a3.47,3.47,0,0,0-.2.5,2.17,2.17,0,0,0-.07.24,1.21,1.21,0,0,0,0,.3h0v.17l.73.27-.72-.29-.07.18c0,.19-.11.42-.16.65h0c-.07.39-.15.71-.21.92a1,1,0,0,1-.08.22h0l.3.15-.27-.2,0,.05.3.15-.27-.2.54.38L5,11a.71.71,0,0,0-.16.16l.54.38L5,11l.45.64L5.08,11l.32.56-.13-.64a.71.71,0,0,0-.19.08l.32.56-.13-.64.05.27,0-.27h0l.05.27,0-.27H4.62a2.41,2.41,0,0,0-.81.13h0l-.19.05-.11,0h0a1.62,1.62,0,0,0-.61.12,2.78,2.78,0,0,0-.53.3h0a3.24,3.24,0,0,0-.84.81A4.2,4.2,0,0,0,1,13.44H1a2.76,2.76,0,0,1-.15.43v0h0v0h0v0l0,0h0a2.2,2.2,0,0,0-.54.6,1.61,1.61,0,0,0-.24.81,1.21,1.21,0,0,0,.05.33,3.36,3.36,0,0,0,.3.6h0a1.12,1.12,0,0,1,.1.18v0h0l.21-.07-.22.05v0l.21-.07-.22.05L1,16.32H.45a1.05,1.05,0,0,0,0,.12L1,16.32H.45a.88.88,0,0,0,0,.2A2.54,2.54,0,0,0,.62,17a4,4,0,0,0,.22.48h0a3.62,3.62,0,0,0,.41.67,1.93,1.93,0,0,0,.3.27,1.75,1.75,0,0,0,.31.15l.31-.71-.32.71.06,0h0l0,0,0,0h0l0,0,0,0h0l.7-.34-.71.32a1.37,1.37,0,0,0,.28.43,1.15,1.15,0,0,0,.34.21,1.14,1.14,0,0,0,.38.07,1.55,1.55,0,0,0,.56-.11l.61-.23.74-.29-.29-.72-.77-.06-.06.63h0c0,.2,0,.39,0,.55a1.77,1.77,0,0,0,0,.24,1.2,1.2,0,0,0,0,.24v0h0a1.21,1.21,0,0,0,.28.52,1.47,1.47,0,0,0,.36.27,2,2,0,0,0,.56.16,4,4,0,0,0,.62,0,12,12,0,0,0,1.22-.07h0a4.57,4.57,0,0,0,.77-.11,1.51,1.51,0,0,0,.35-.14A2,2,0,0,0,8.14,20h0l.06,0h0l-.16-.39V20c.14,0,.16,0,.16,0l-.16-.39V20a.74.74,0,0,0,.24,0,1.89,1.89,0,0,0,.45-.2c.13-.09.26-.18.39-.29h0l.22-.17a.41.41,0,0,1,.19-.09,2.12,2.12,0,0,1,.47-.07h0l.23,0V19l0,.19h0V19l0,.19,0-.55-.22.51.17,0,0-.55-.22.51.26-.6L9.88,19a.71.71,0,0,0,.18.12l.26-.6L9.88,19l.4-.43-.53.26a.72.72,0,0,0,.13.17l.4-.43-.53.26.3-.15-.31.13v0l.3-.15-.31.13.1,0-.1,0h0l.1,0-.1,0v.05h0l.21-.09-.23.05,0,0,.21-.09-.23.05.11,0H9.75v0l.11,0H9.75a.72.72,0,0,1,0,.14h0c0,.16-.05.32-.07.51a5.25,5.25,0,0,0,0,.56,3,3,0,0,0,.06.67A1.61,1.61,0,0,0,9.8,21a1.27,1.27,0,0,0,.15.26h0a3.51,3.51,0,0,0,.84.94,1.85,1.85,0,0,0,1.12.41v-.24l-.06.23h.06v-.24l-.06.23a3.31,3.31,0,0,1,.49.28h0a4.79,4.79,0,0,0,.56.33l.25.13.14.05.2.05h0l0-.38-.24.3a.52.52,0,0,0,.2.08l0-.38-.24.3.13-.16-.14.15h0l.13-.16-.14.15,0-.05-.05.05h0l0-.05-.05.05,0,0,.17.23a1.64,1.64,0,0,0,.23.21,1.08,1.08,0,0,0,.47.17,2,2,0,0,0,.33,0l.16,0a3.07,3.07,0,0,1,.42.17l.14.09,0,0,.18-.18-.21.14,0,0,.18-.18-.21.14h0l.41-.28-.46.19.05.09.41-.28-.46.19.16-.07-.17.05v0l.16-.07-.17.05a1.55,1.55,0,0,1,0,.16,2.62,2.62,0,0,1,0,.29,2.92,2.92,0,0,1,0,.33v.06l.2.05L15.2,25v0l.2.05L15.2,25l.5.21-.43-.33a.41.41,0,0,0-.07.12l.5.21-.43-.33h0a1.39,1.39,0,0,0-.21.45,1.51,1.51,0,0,0-.05.42,1.59,1.59,0,0,0,.07.48,1.24,1.24,0,0,0,.24.49l.61-.49-.61.48a2.11,2.11,0,0,0,.89.63,4.28,4.28,0,0,0,1.12.28h0l.64.07.09-.77-.78-.05v.22h0c0,.08,0,.35-.06.56l.77.08-.77-.1a2.17,2.17,0,0,0,0,.32,1,1,0,0,0,.11.47.91.91,0,0,0,.23.3,2.16,2.16,0,0,0,.32.25l.38.22.39-.68-.39.67.32-.54L18,29a.62.62,0,0,0,.25.25l.32-.54L18,29l.3-.15-.32.09L18,29l.3-.15-.32.09h0a1.87,1.87,0,0,1,0,.24l.78,0-.78,0a1.16,1.16,0,0,1,0,.17.84.84,0,0,1,0,.12.55.55,0,0,1,0,.1h0a2.21,2.21,0,0,0-.15.37,1.59,1.59,0,0,0-.07.41,1.66,1.66,0,0,0,0,.26h0l.58-.16h-.6a.64.64,0,0,0,0,.16l.58-.16H18l-.31-.06v.06H18l-.31-.06h0l0,.07h0a1.62,1.62,0,0,0-.11.28,6.76,6.76,0,0,0-.2,1.11c0,.44-.07.92-.07,1.38a3.82,3.82,0,0,0,0,.58,1.19,1.19,0,0,0,.19.51,1,1,0,0,0,.34.34,1.46,1.46,0,0,0,.54.19l.5.07h0l.43.06.15,0h0l.12-.29-.14.28h0l.12-.29-.14.28.35-.69L19.5,35a.3.3,0,0,1,.16.15.88.88,0,0,1,.08.43c0,.06,0,.13,0,.2h0c0,.13,0,.25,0,.37a1.47,1.47,0,0,0,0,.39,1.25,1.25,0,0,0,.18.37.85.85,0,0,0,.27.23,1.07,1.07,0,0,0,.39.15l.3,0h.36l0-.24-.1.22.07,0,0-.24-.1.22.17-.38-.28.31.11.07.17-.38-.28.31h0l.18-.2-.21.17,0,0,.18-.2-.21.17.38-.3L21,37a1.19,1.19,0,0,0,.08.16l.38-.3L21,37l.34-.1H21a.35.35,0,0,0,0,.1l.34-.1H21a5.8,5.8,0,0,1-.12.62h0l-.27,1.15.65.52.49-.61-.52.58.09.1,0,0,.08,0-.08,0h0l.08,0-.08,0,.32-.13-.34.09,0,0,.32-.13-.34.09h0l.28-.08-.28,0v0l.28-.08-.28,0h0v.08a5.81,5.81,0,0,1-.06.65,2.07,2.07,0,0,1-.06.26v0h0l.42.16-.34-.28c-.08.1-.08.12-.08.12l.42.16-.34-.28h0l.42.34-.34-.42s0,0-.08.08l.42.34-.34-.42.06.07-.06-.08h0l.06.07-.06-.08-.21.13-.38.2h0a8,8,0,0,0-2.4,1.85h0a6.35,6.35,0,0,0-.47.56,2.61,2.61,0,0,0-.17.28,1.07,1.07,0,0,0-.12.46.9.9,0,0,0,.07.36,3,3,0,0,0,.38.7l.63-.46-.64.45a1.2,1.2,0,0,1,.16.27l.05.11v0h0l.27-.07-.27.06h0l.27-.07-.27.06.76-.16-.77.12c0,.08,0,.15,0,.22a1.25,1.25,0,0,0,.13.4.92.92,0,0,0,.29.32.8.8,0,0,0,.47.13,1.11,1.11,0,0,0,.35-.06l.17-.07-.3-.72.28.73.19-.07,0,0-.12-.36.09.37h0l-.12-.36.09.37-.16-.64.12.65h0l-.16-.64.12.65-.13-.73v.74h.13l-.13-.73v0l-.28.72a.65.65,0,0,0,.28,0v-.77l-.28.72.26-.68-.4.61.14.07.26-.68-.4.61.25-.38-.29.35,0,0,.25-.38-.29.35.15.14a3.75,3.75,0,0,1,.27.28h0c.29.3.66.66.89.86h0a1.35,1.35,0,0,1,.2.21l.08.11,0,0h0l.08-.05-.08,0h0l.08-.05-.08,0h0l.1.18a.9.9,0,0,0,.14.19.92.92,0,0,0,.41.27,1.06,1.06,0,0,0,.36,0h.36l.09-.36-.19.31.1,0,.09-.36-.19.31h0a1.08,1.08,0,0,0,.52.14,1,1,0,0,0,.55-.17,1.24,1.24,0,0,0,.38-.46,2.77,2.77,0,0,0,.2-.46h0a1.84,1.84,0,0,1,.18-.33,5.72,5.72,0,0,1,.47-.56h0a6.51,6.51,0,0,1,.45-.48l0,0h0l-.21-.28.14.32.07,0-.21-.28.14.32-.23-.55v.6a.61.61,0,0,0,.23,0l-.23-.55v0l-.31.56a.67.67,0,0,0,.31.08v-.64l-.31.56.23-.43-.35.35a1,1,0,0,0,.12.08l.23-.43-.35.35h0a.79.79,0,0,0,.25.18,1.48,1.48,0,0,0,.28.09l.24,0h.17L25,45.07l.06.77a1,1,0,0,0,.41-.11,1,1,0,0,0,.26-.19,3.15,3.15,0,0,0,.49-.66h0a4.12,4.12,0,0,1,.65-.82l-.53-.57.53.57a4.66,4.66,0,0,0,.48-.51,2.89,2.89,0,0,0,.47-1A9.3,9.3,0,0,0,28,41.15h0a3.38,3.38,0,0,1,.2-.94h0a2.75,2.75,0,0,0,.16-.42l.06-.21a1.45,1.45,0,0,0,0-.27h0l-.51,0,.5.1v-.07l-.51,0,.5.1-.7-.14.51.49a.66.66,0,0,0,.19-.35l-.7-.14.51.49-.53-.51.26.7a.74.74,0,0,0,.27-.19l-.53-.51.26.7-.26-.69v.73a.92.92,0,0,0,.26,0l-.26-.69v.12l-.21.58a.65.65,0,0,0,.21,0v-.61l-.21.58h0l.16.07a1.11,1.11,0,0,0,.31,0,1,1,0,0,0,.71-.33A1.9,1.9,0,0,0,29,39.5h0a.83.83,0,0,1,.38-.27l-.3-.72.28.73a5.44,5.44,0,0,0,1-.54h0a1.38,1.38,0,0,1,.23-.14h0a3.23,3.23,0,0,0,1-.18,3,3,0,0,0,.9-.53h0l.15-.11h0l0-.07v.07h0l0-.07v.07h0l.18.06h0a2.16,2.16,0,0,0,.86.17,3.58,3.58,0,0,0,1.54-.39h0a6.54,6.54,0,0,0,1-.68,4.28,4.28,0,0,0,.43-.37,1.33,1.33,0,0,0,.19-.21l.1-.16a.87.87,0,0,0,.09-.38h-.55L37,36a.91.91,0,0,0,0-.2h-.55L37,36l-.21-.08L37,36h0l-.21-.08L37,36h0a1.14,1.14,0,0,1,.18-.22,1,1,0,0,1,.19-.17h0a1.68,1.68,0,0,0,.24-.19,8.27,8.27,0,0,0,.82-.84c.13-.16.27-.33.38-.48a4,4,0,0,0,.3-.46h0a2.23,2.23,0,0,0,.08-.24,2.43,2.43,0,0,0,.08-.61.81.81,0,0,1,0-.27.63.63,0,0,1,.16-.2h0a2.89,2.89,0,0,0,.51-.67,5.83,5.83,0,0,0,.49-1.45c.13-.6.26-1.35.39-2.34h0c.06-.36.11-.71.15-1l.05-.31,0-.08h0l-.51-.13.48.2,0-.07-.51-.13.48.2v0L41,26.46l.13.09,0,0L41,26.46l.13.09-.1-.07.09.08h0l-.1-.07.09.08,0,0,0,0h0l0,0,0,0,.1-.07.34-.18h0a3.64,3.64,0,0,0,1-.75,3.11,3.11,0,0,0,.68-1h0c.07-.18.12-.31.15-.37l0,0h0l0,0,0,0h0l0,0,0,0h0s0,0,.13-.07L44,23.9h0a3.17,3.17,0,0,0,.87-.41,2.48,2.48,0,0,0,.63-.7h0l-.11-.06.11.06h0l-.11-.06.11.06a2.22,2.22,0,0,1,.18-.23c.1-.12.22-.25.33-.36h0a5.06,5.06,0,0,0,.8-1,2.78,2.78,0,0,0,.38-1.1L46.4,20l.77.1a2.83,2.83,0,0,0,0-.29A10.34,10.34,0,0,0,47,18.29c-.05-.27-.1-.53-.16-.77a2,2,0,0,0-.09-.33,2.22,2.22,0,0,0-.11-.3,2,2,0,0,0-.69-.8,3.61,3.61,0,0,0-1-.4h0l-.38-.1-.14-.05h0l0,.07,0-.07h0l0,.07,0-.07-.17.35.19-.34h0l-.17.35.19-.34h0l0,0-.22.48.35-.4a.74.74,0,0,0-.13-.08l-.22.48.35-.4-.11-.11c-.17-.19-.46-.56-.75-.94h0a11.83,11.83,0,0,0-.75-1,1.9,1.9,0,0,0-.67-.54l-.08.2.1-.19h0l-.08.2.1-.19h0L42.1,13a.83.83,0,0,1-.17-.15l-.56.54.57-.53-.3-.32-.23-.25H40.08a4.25,4.25,0,0,1-1-.06.84.84,0,0,1-.23-.09l-.35-.22h0a2.11,2.11,0,0,0-.27-.18,1.69,1.69,0,0,0-.49-.21,2.23,2.23,0,0,0-.5-.05H37.1l0,.78v-.78a3.8,3.8,0,0,0-1.31.25h0l-.36.13-.1,0h0l.12.54-.08-.55h0l.12.54-.08-.55.11.71v-.72h-.11l.11.71v.05l.12-.76H35.5v.77l.12-.76-.12.77.35-.7a.89.89,0,0,0-.23-.07l-.12.77.35-.7-.35.7.7-.34-.7.34.77-.09a.5.5,0,0,0-.07-.25l-.7.34.77-.09-.74.08h.75v-.08l-.74.08h.18l.56.07s0,0,0-.07h-.57l.56.07h0c0-.06,0-.27.11-.48h0v0c0-.15.07-.31.1-.44l0-.2c0-.06,0-.12,0-.21a.49.49,0,0,0,0-.11.62.62,0,0,0-.06-.24l-.71.31.73-.27a.82.82,0,0,0-.17-.27,1.36,1.36,0,0,0-.18-.17,4.54,4.54,0,0,0-.56-.36l-.38.68.39-.67L35.21,10l-.13-.09,0,0h0l-.17.21.18-.2h0l-.17.21.18-.2h0a2.59,2.59,0,0,0-.61-.38,7.23,7.23,0,0,0-1.11-.38,4.71,4.71,0,0,0-1.15-.17,2.43,2.43,0,0,0-.66.07,2.57,2.57,0,0,0-.62.24l.35.69-.34-.7-.43.23-.18.12-.17.13.53.58-.5-.6a1.84,1.84,0,0,1-.28.21h0l-.22.15.43.65.61-.49L30.51,10l-.61.48.62-.47,0,0h0l-.46.25h.52A.51.51,0,0,0,30.5,10l-.46.25h-.18l.62.33a.75.75,0,0,0,.08-.33h-.7l.62.33-.63-.33.45.55a1.32,1.32,0,0,0,.18-.22l-.63-.33.45.55-.43-.52.16.65a.8.8,0,0,0,.27-.13l-.43-.52.16.65-.12-.49v.5H30l-.12-.49v.5a.93.93,0,0,0,.28,0,1.93,1.93,0,0,0,.32-.13,5.75,5.75,0,0,0,1-.67,3.83,3.83,0,0,0,.41-.39,1.42,1.42,0,0,0,.18-.22,1,1,0,0,0,.09-.18A.87.87,0,0,0,32.22,9,.86.86,0,0,0,32,8.43a1.28,1.28,0,0,0-.42-.35A2.84,2.84,0,0,0,31,7.83a4.57,4.57,0,0,0-.77-.15h0a3.6,3.6,0,0,0-.56,0,2.57,2.57,0,0,0-.83.13,2.88,2.88,0,0,0-.74.38h0a2.54,2.54,0,0,1-.49.29l-.12.05h0l0,.12,0-.12h0l0,.12,0-.12.06.39v-.4h-.06l.06.39v.25l.38-.51a.57.57,0,0,0-.38-.14v.65l.38-.51-.42.56.64-.29a.64.64,0,0,0-.22-.27l-.42.56.64-.29-.62.28h.68a.67.67,0,0,0-.06-.28l-.62.28h0l.65.19a1.31,1.31,0,0,0,0-.19h-.67l.65.19-.4-.12.38.17,0-.05-.4-.12.38.17-.09,0,.09,0h0l-.09,0,.09,0a.56.56,0,0,1,.08-.14l.27-.37a2,2,0,0,1,.25-.28h0c0-.05.15-.13.25-.22l.31-.23-.44-.64.43.65a3.87,3.87,0,0,0,.7-.54,1.11,1.11,0,0,0,.26-.39,1.16,1.16,0,0,0,.1-.46H30l.32.18a.45.45,0,0,0,0-.18H30l.32.18h0l0,0L29.8,6.4l.53.56a2.28,2.28,0,0,0,.22-.22l.1-.13.07-.13a.58.58,0,0,0,.05-.11,1.19,1.19,0,0,0,0-.24.75.75,0,0,0-.06-.3.68.68,0,0,0-.16-.24c-.08-.08-.12-.1-.15-.13l-.14-.07a3.76,3.76,0,0,0-.39-.17h0l-.27-.1h0l-.13.21.19-.17-.06,0-.13.21.19-.17-.26.24.31-.17-.05-.07-.26.24.31-.17-.19.1.2-.07v0l-.19.1.2-.07h0a.63.63,0,0,1,0-.17l-.78.12.78-.09A9.13,9.13,0,0,0,29.45,4h0c0-.15-.08-.31-.12-.44s-.06-.25-.07-.27l-.76.17.76-.16A1.09,1.09,0,0,0,29,2.75a1,1,0,0,0-.33-.25,1,1,0,0,0-.4-.08,1.13,1.13,0,0,0-.64.2,2.79,2.79,0,0,0-.42.35h0a2.51,2.51,0,0,0-.4.5,1.28,1.28,0,0,0-.14.34,1.35,1.35,0,0,0,0,.33v0h0l.47.05-.43-.18a.63.63,0,0,0,0,.13l.47.05-.43-.18.57.23-.46-.41a.58.58,0,0,0-.11.18l.57.23-.46-.41.4.36L27,3.74a.72.72,0,0,0-.17.13l.4.36L27,3.74l.09.19L27,3.74h0l.09.19L27,3.74h-.05A1.59,1.59,0,0,0,26.5,4a1,1,0,0,0-.19.18.75.75,0,0,0-.2.35h0l.17,0-.14-.11,0,.06.17,0-.14-.11.14.11-.1-.15,0,0,.14.11-.1-.15,0,0,0,0h0l0,0,0,0a1.09,1.09,0,0,1-.34.06h-.2a2.07,2.07,0,0,1-.56-.07.88.88,0,0,1-.25-.11l-.51.59.52-.58a2,2,0,0,0-.78-.41,2.85,2.85,0,0,0-.81-.13l-.35,0a1.38,1.38,0,0,0-.42.16h0l-.27.21a1.47,1.47,0,0,0-.13.17.42.42,0,0,0-.08.15.76.76,0,0,0-.07.32h.76L22,4.51a.69.69,0,0,0-.05.28h.76L22,4.51l.65.25-.56-.41a1.25,1.25,0,0,0-.09.16l.65.25-.56-.41.29.21-.26-.25,0,0,.29.21-.26-.25a.56.56,0,0,1-.13.11l.45.63L22,4.41l-.09.06h0l.11.2,0-.22-.06,0,.11.2,0-.22,0,.16,0-.16h0l0,.16,0-.16h0l-.37,0h0a3.54,3.54,0,0,0-.45,0,4.42,4.42,0,0,0-1,.11h0c-.27.06-.71.13-.87.15h-.15V5l.08-.32h-.08V5l.08-.32-.12.44.23-.39-.11,0-.12.44.23-.39L19.18,5l.18-.24,0,0L19.18,5l.18-.24,0,0,0,0h0l0,0,0,0a.76.76,0,0,1-.14-.14h0A1.38,1.38,0,0,1,19,4.17a1.31,1.31,0,0,1-.11-.51.36.36,0,0,1,0-.16A1.73,1.73,0,0,1,19,3.11h0l.51-1L19,1.37h0l-.09-.1v0l-.26.16.29-.09,0-.07-.26.16.29-.09-.41.13h.43l0-.13-.41.13h.16l.27,0v0h-.27l.27,0h0a1.24,1.24,0,0,0,0-.27,1.27,1.27,0,0,0-.24-.76,1,1,0,0,0-.36-.3A1,1,0,0,0,17.85,0,1.16,1.16,0,0,0,17,.36h0l.55.55.55.55-.28-.29v.39a.42.42,0,0,0,.28-.1l-.28-.29V1l-.25.48a.51.51,0,0,0,.25.06V1l-.25.48.22-.42-.43.21a.46.46,0,0,0,.21.21l.22-.42-.43.21.23-.11h-.26a.24.24,0,0,0,0,.11l.23-.11h-.26a1,1,0,0,0,0,.27,1.24,1.24,0,0,0,.15.57,2.92,2.92,0,0,0,.29.38l.58-.52-.59.51L18,2.7l.59-.51-.69-.35-.29.56h0a4,4,0,0,0-.26.63,2,2,0,0,0-.1.63,2.91,2.91,0,0,0,.22,1.09,2.88,2.88,0,0,0,.6,1h0a2.66,2.66,0,0,0,.38.35,1.11,1.11,0,0,0,.33.15,1.47,1.47,0,0,0,.33,0l.3,0h0c.28,0,.7-.11,1-.18h0A3.1,3.1,0,0,1,21.12,6l.32,0h0l.5,0a1.51,1.51,0,0,0,.53-.09,3,3,0,0,0,.39-.22h0l.29-.23.13-.13a.81.81,0,0,0,.08-.12l.07-.13a.84.84,0,0,0,0-.29h-.74l.69.28a.77.77,0,0,0,0-.28h-.74l.69.28-.59-.24.5.39a1.27,1.27,0,0,0,.09-.15l-.59-.24.5.39L23.12,5l.19.22,0,0L23.12,5l.19.22h0L23.13,5l.07.34.12,0L23.13,5l.07.34h.05a1.41,1.41,0,0,1,.36.06.52.52,0,0,1,.15.06l0,0h0l0,0,0,0h0l0,0,0,0h0a2.24,2.24,0,0,0,.84.43,3.81,3.81,0,0,0,1,.12h.3a2.22,2.22,0,0,0,1-.24,1.39,1.39,0,0,0,.68-.82h0L27,4.76l.46.41a.66.66,0,0,0,.13-.24L27,4.76l.46.41L27.25,5l.15.26a.22.22,0,0,0,.07-.06L27.25,5l.15.26,0-.07,0,.08h0l0-.07,0,.08h0l.25-.1A1.2,1.2,0,0,0,27.9,5a.84.84,0,0,0,.18-.24,1,1,0,0,0,.1-.34,1.86,1.86,0,0,0,0-.22h0l-.27,0,.26.09V4.15l-.27,0,.26.09L28,4.13l.21.12,0,0L28,4.13l.21.12,0,0,0,0h0l0,0,0,0a1.33,1.33,0,0,1,.17-.18l-.56-.55.55.55a.52.52,0,0,1,.16-.13h0l-.2-.35V4a1,1,0,0,0,.2,0l-.2-.35V3.38L28,3.92a.57.57,0,0,0,.24.06v-.6L28,3.92l.23-.52-.49.3a.66.66,0,0,0,.26.22l.23-.52-.49.3L28,3.54l-.3.06a.24.24,0,0,0,0,.1L28,3.54l-.3.06h0c0,.08.05.19.08.33l.12.45h0c.07.27.17.72.19.89h0a2.55,2.55,0,0,0,.09.43,1.3,1.3,0,0,0,.19.37,1.28,1.28,0,0,0,.49.4,2.62,2.62,0,0,0,.49.19L29.64,6l-.27.73.21.08h0l.22-.4-.27.37.05,0,.22-.4-.27.37L30,6.17l-.53.48a.74.74,0,0,0,.11.1L30,6.17l-.53.48L30,6.14l-.68.36a.73.73,0,0,0,.11.15L30,6.14l-.68.36L30,6.13h-.78a.76.76,0,0,0,.09.37L30,6.13h0l-.73-.21a.86.86,0,0,0,0,.21H30l-.73-.21.67.2-.6-.35a.41.41,0,0,0-.07.15l.67.2-.6-.35L29.7,6l-.33-.26,0,0L29.7,6l-.33-.26-.11.11h0a1.93,1.93,0,0,0-.3.39,1.14,1.14,0,0,0-.15.57h.39l-.36-.15a.24.24,0,0,0,0,.15h.39l-.36-.15.29.13-.24-.21-.05.08.29.13-.24-.21h0a2.74,2.74,0,0,1-.44.32h0L28,7.19l-.37.31h0a6.37,6.37,0,0,0-.61.73,3.87,3.87,0,0,0-.24.37,1.14,1.14,0,0,0-.1.19,1.09,1.09,0,0,0,0,.14.63.63,0,0,0,0,.25.89.89,0,0,0,.5.79.94.94,0,0,0,.4.08,1.19,1.19,0,0,0,.4-.07,3.91,3.91,0,0,0,1-.55h0a1.53,1.53,0,0,1,.36-.2,1,1,0,0,1,.33,0,2.57,2.57,0,0,1,.36,0h0a3.07,3.07,0,0,1,.74.18l.1,0h0l.19-.3-.27.22.08.08.19-.3-.27.22L31.27,9l-.56.24a.68.68,0,0,0,.09.14L31.27,9l-.56.24L31.34,9h-.68a.93.93,0,0,0,.05.27L31.34,9h0l-.6-.28a.6.6,0,0,0-.06.28h.66l-.6-.28.34.16-.31-.21,0,0,.34.16-.31-.21,0,0,0,0h0l0,0,0,0-.19.19a5.79,5.79,0,0,1-.57.44l-.22.13h0l.17.42V9.38a1,1,0,0,0-.17,0l.17.42V9.38a.94.94,0,0,0-.22,0,.91.91,0,0,0-.46.26.68.68,0,0,0-.18.29.8.8,0,0,0-.05.29.93.93,0,0,0,.11.46,2.94,2.94,0,0,0,.17.26h0l.17.22.45.56.81-.53-.43-.65.41.66c.19-.12.35-.26.46-.34h0L31,10.64l.2.24h0L31,10.64l.2.24h0l.16-.11.26-.14h0a1.14,1.14,0,0,1,.28-.12,1.62,1.62,0,0,1,.3,0,4,4,0,0,1,1.07.2c.2.06.38.14.53.2A2.1,2.1,0,0,1,34,11l.52-.58L34,11a1,1,0,0,0,.18.14c.17.12.39.25.62.38h0l.3.19,0,0h0l.18-.22-.21.2,0,0,.18-.22-.21.2.45-.41-.5.35,0,.06.45-.41-.5.35.59-.42-.68.25c0,.09.07.13.09.17l.59-.42-.68.25v0l.66-.29-.72.09a.74.74,0,0,0,.06.2l.66-.29-.72.09.56-.07H35v.07l.56-.07H35a1.52,1.52,0,0,1,0,.19,2.71,2.71,0,0,1-.07.32l.76.18-.75-.21c-.05.18-.08.33-.11.46s0,.12,0,.17v.08a.35.35,0,0,0,0,.12v.1a.93.93,0,0,0,.07.24l.12.24.23.12a.8.8,0,0,0,.24.08h.26l.17,0,.53-.19h0a2.26,2.26,0,0,1,.78-.15h.25v-.05l0,.05h0v-.05l0,.05h0l.24.15h0a5.43,5.43,0,0,0,.51.32,2.54,2.54,0,0,0,.87.28,8.68,8.68,0,0,0,1.09.05h.65l.07.07h0a2.25,2.25,0,0,0,.37.33,2.34,2.34,0,0,0,.44.27l.12-.28-.17.25,0,0,.12-.28-.17.25,0,0,0,0h0l0,0,0,0,.23.25c.14.17.33.42.58.76h0c.24.32.48.62.68.86l.27.31.14.13a.68.68,0,0,0,.24.16l.33-.7-.39.67a1.52,1.52,0,0,0,.23.11,5.82,5.82,0,0,0,.73.21l.17-.76-.19.75a1.6,1.6,0,0,1,.53.2c.07,0,.08.05.14.17l.05,0-.05,0h0l.05,0-.05,0a2.17,2.17,0,0,1,.1.35c.07.28.14.66.19,1a7.37,7.37,0,0,1,.08.89.77.77,0,0,1,0,.1h0a1.06,1.06,0,0,1-.18.48,3,3,0,0,1-.55.68h0l-.43.46-.18.22-.16.24.68.38-.67-.4a.59.59,0,0,1-.21.23,1.28,1.28,0,0,1-.39.19h0a5.79,5.79,0,0,0-.59.2,1.93,1.93,0,0,0-.4.21,1.63,1.63,0,0,0-.48.54,4.14,4.14,0,0,0-.26.61h0a1.53,1.53,0,0,1-.34.5,2,2,0,0,1-.6.44h0a3.8,3.8,0,0,0-.73.42,1.64,1.64,0,0,0-.29.3,1.35,1.35,0,0,0-.2.37l.74.26L39.65,26a.37.37,0,0,0,0,.11c0,.08,0,.15,0,.25-.05.28-.13.76-.2,1.28h0a20,20,0,0,1-.49,2.67,4.27,4.27,0,0,1-.22.59,1.05,1.05,0,0,1-.21.27h0a2.14,2.14,0,0,0-.53.73,2.27,2.27,0,0,0-.17.89,1,1,0,0,1,0,.16v0h0l.36.1-.33-.16,0,.06.36.1-.33-.16.7.34-.7-.35a2.6,2.6,0,0,1-.2.29,9.14,9.14,0,0,1-.59.7l-.27.27-.09.07v0l.11.16-.1-.17h0l.11.16-.1-.17h0a2.6,2.6,0,0,0-.36.27,3.28,3.28,0,0,0-.43.49,2.68,2.68,0,0,0-.18.28,1.31,1.31,0,0,0-.07.19.72.72,0,0,0-.05.29h.7l-.63-.32a.82.82,0,0,0-.07.32h.7l-.63-.32.44.22-.39-.29-.05.07.44.22-.39-.29.14.11-.14-.11h0l.14.11-.14-.11h0l-.18.16a5.37,5.37,0,0,1-.91.63h0a2.16,2.16,0,0,1-.86.23.72.72,0,0,1-.25,0h0a2,2,0,0,0-.79-.18,1.32,1.32,0,0,0-.65.15,2.2,2.2,0,0,0-.5.34h0a1.49,1.49,0,0,1-.42.23,1.48,1.48,0,0,1-.49.1,1.54,1.54,0,0,0-.62.11,3.26,3.26,0,0,0-.54.31h0a4,4,0,0,1-.66.36h0a2.64,2.64,0,0,0-1,.69h0l-.09.1,0,0,.3.32-.2-.39-.1.07.3.32-.2-.39.3.57v-.64a.66.66,0,0,0-.3.07l.3.57v-.07l.17-.54a.42.42,0,0,0-.17,0v.57l.17-.54-.08.25.1-.25h0l-.08.25.1-.25h0l-.15-.06a1,1,0,0,0-.57,0,.85.85,0,0,0-.42.32A.79.79,0,0,0,27,39a1.15,1.15,0,0,0,0,.2v.11h.48l-.47-.06v.06h.48l-.47-.06.15,0-.15,0h0l.15,0-.15,0,0,.12a1.31,1.31,0,0,1-.08.21l.71.32-.7-.34A4.62,4.62,0,0,0,26.49,41h0a6.81,6.81,0,0,1-.24,1.37,1.27,1.27,0,0,1-.15.26,2.42,2.42,0,0,1-.29.31h0a5.8,5.8,0,0,0-.92,1.16h0l-.16.25-.06.08h0l.27.25-.17-.32a.42.42,0,0,0-.1.07l.27.25-.17-.32.21.41,0-.46-.17.05.21.41,0-.46h0l0,.17v-.17h0l0,.17v.09L25,44.3h-.07v.26L25,44.3l-.13.49.22-.45-.09,0-.13.49.22-.45-.29.59.47-.46a.62.62,0,0,0-.18-.13l-.29.59.47-.46h0a2.11,2.11,0,0,0-.24-.18,1,1,0,0,0-.44-.11,1,1,0,0,0-.51.14,2.71,2.71,0,0,0-.4.33l-.44.47h0a7.84,7.84,0,0,0-.6.73,2.93,2.93,0,0,0-.35.68l.73.27-.73-.28a1.9,1.9,0,0,1-.09.22l0,.08h0l.18.11-.16-.14,0,0,.18.11-.16-.14.4.34-.25-.45a.56.56,0,0,0-.15.11l.4.34-.25-.45.29.54v-.62a.6.6,0,0,0-.29.08l.29.54v-.16l.23-.41a.58.58,0,0,0-.23,0v.46l.23-.41-.37.68.39-.67a1.12,1.12,0,0,0-.24-.1,2.09,2.09,0,0,0-.55-.08h-.26v.2l0-.2h0v.2l0-.2,0,.53.23-.48a.44.44,0,0,0-.18,0l0,.53.23-.48-.26.54.41-.44a.49.49,0,0,0-.15-.1l-.26.54.41-.44-.29.32.37-.22a.44.44,0,0,0-.08-.1l-.29.32.37-.22,0-.08h0a2.08,2.08,0,0,0-.3-.45,3.44,3.44,0,0,0-.37-.4h0c-.18-.16-.56-.53-.81-.78l-.56.54.57-.54-.39-.38a1,1,0,0,0-.15-.14l-.09-.07L20,44.4l-.11,0a.78.78,0,0,0-.28-.06l-.14,0a.27.27,0,0,0-.15,0l-.31.11h0l-.08,0,.17.49v-.51a.44.44,0,0,0-.17,0l.17.49v.18l.24-.65a.8.8,0,0,0-.24,0v.69l.24-.65-.24.65.59-.37a.74.74,0,0,0-.35-.28l-.24.65.59-.37-.46.29.52-.17-.06-.12-.46.29.52-.17-.23.08.23-.07h0l-.23.08.23-.07h0s0-.1,0-.2v0h0c0-.11,0-.19-.08-.27a3.64,3.64,0,0,0-.4-.71h0a1.58,1.58,0,0,1-.14-.23l0-.06-.43.15h.45c0-.13,0-.15,0-.15l-.43.15h-.06l.46.23s.05-.06.05-.23h-.51l.46.23-.05,0,.05,0h0l-.05,0,.05,0,.12-.16c.07-.09.16-.2.29-.34l-.58-.52.57.53a6.61,6.61,0,0,1,1.95-1.52h0c.2-.1.39-.2.55-.3l.23-.14.11-.08.15-.15-.61-.49.6.5a.94.94,0,0,0,.16-.28,2.92,2.92,0,0,0,.11-.36,5.77,5.77,0,0,0,.14-1.18,1.61,1.61,0,0,0,0-.46h0a1.43,1.43,0,0,0-.25-.48,2.11,2.11,0,0,0-.31-.36h0l-.28-.23-.49.61.76.17.16-.67h0c.05-.22.09-.39.12-.54a2.12,2.12,0,0,0,.05-.44,1.13,1.13,0,0,0-.11-.52,1.41,1.41,0,0,0-.27-.35h0a1.08,1.08,0,0,0-.49-.27,1.6,1.6,0,0,0-.47-.06h-.33l-.05.4.18-.36-.13,0-.05.4.18-.36-.26.52.43-.38a.7.7,0,0,0-.17-.14l-.26.52.43-.38-.39.34.51-.12a.39.39,0,0,0-.12-.22l-.39.34.51-.12-.18.05.19,0v0l-.18.05.19,0v0s0-.13,0-.24h0c0-.11,0-.22,0-.33a2.54,2.54,0,0,0-.25-1.15,2,2,0,0,0-.84-.82h0a1.3,1.3,0,0,0-.27-.1,5.07,5.07,0,0,0-.86-.16h0a2.11,2.11,0,0,1-.4-.06h0l-.1.32.22-.24a.34.34,0,0,0-.12-.08l-.1.32.22-.24-.3.32.4-.18-.1-.14-.3.32.4-.18-.21.09.23-.05,0,0-.21.09.23-.05a1.88,1.88,0,0,1,0-.34A11.88,11.88,0,0,1,19,31.84c0-.2.06-.38.09-.52a1.57,1.57,0,0,1,0-.16l0,0h0l-.17-.07.16.08h0l-.17-.07.16.08h0a1.33,1.33,0,0,0,.13-.33,1.71,1.71,0,0,0,.07-.39,1.41,1.41,0,0,0,0-.25h0l-.58.16h.6a.64.64,0,0,0,0-.16l-.58.16H19l.26.05v-.05H19l.26.05,0-.11h0a2,2,0,0,0,.18-.45,2.09,2.09,0,0,0,.05-.49,2.35,2.35,0,0,0,0-.26h0a2.85,2.85,0,0,0-.07-.51,1.14,1.14,0,0,0-.11-.28.81.81,0,0,0-.34-.37h0l-.31-.18-.1-.07h0l-.06.07.07-.07h0l-.06.07.07-.07-.32.35.43-.19a.55.55,0,0,0-.11-.16l-.32.35.43-.19-.45.2h.49a.51.51,0,0,0,0-.2l-.45.2h.49s0-.06,0-.13h0c0-.21.05-.46.06-.63h0l0-.23.05-.74-1.37-.16h0a2.72,2.72,0,0,1-.72-.17l-.2-.1,0,0h0l-.18.15.21-.11,0,0-.18.15.21-.11,0,0,.06,0h0l0,0,.06,0v-.07h0l-.25-.05.2.15a.21.21,0,0,0,0-.1l-.25-.05.2.15-.62-.47.61.48a1,1,0,0,0,.18-.37,1.64,1.64,0,0,0,.08-.41c0-.14,0-.28,0-.42a3.81,3.81,0,0,0,0-.59,1.57,1.57,0,0,0-.06-.28,1.08,1.08,0,0,0-.16-.36l-.64.44.65-.43a1.55,1.55,0,0,0-.44-.42,3.94,3.94,0,0,0-.74-.37,2.45,2.45,0,0,0-.83-.16h-.11l0,.34.12-.32-.08,0,0,.34.12-.32-.16.45.35-.32a.51.51,0,0,0-.19-.13l-.16.45.35-.32h0l0-.07a1.73,1.73,0,0,0-.37-.4,1.14,1.14,0,0,0-.59-.24l-.08.77.1-.77-.06.47.14-.45-.08,0-.06.47.14-.45,0,.11,0-.11h0l0,.11,0-.11a1,1,0,0,1-.21-.1,3.13,3.13,0,0,1-.37-.23h0a6.37,6.37,0,0,0-.62-.36,1.5,1.5,0,0,0-.67-.17s-.05,0-.18-.09a2.28,2.28,0,0,1-.48-.56h0l-.05-.08h0a1.2,1.2,0,0,1,0-.32c0-.12,0-.28,0-.42s0-.27.05-.31l-.76-.17.75.18a2.15,2.15,0,0,0,.07-.5,1.35,1.35,0,0,0-.11-.55l-.71.31.73-.27s0-.09-.07-.17a1.25,1.25,0,0,0-.14-.21,1,1,0,0,0-.43-.27,1.19,1.19,0,0,0-.33-.05c-.14,0-.24,0-.39,0l.08.77-.07-.77a3.34,3.34,0,0,0-1,.19,2.78,2.78,0,0,0-.42.22,3.37,3.37,0,0,0-.37.29h0a1.19,1.19,0,0,1-.22.16h0l.11.25-.08-.26h0l.11.25-.08-.26.16.57v-.59a.47.47,0,0,0-.16,0l.16.57v-.59a1.17,1.17,0,0,0-.31,0,1.8,1.8,0,0,0-.59.33h0l0,0h0l0,0,0,0h0l0,0,0,0-.12,0-.41,0h0Q5.93,19,5.54,19a1.41,1.41,0,0,1-.49,0l0,.15L5.08,19l0,0,0,.15L5.08,19l-.2.3.3-.21L5.08,19l-.2.3.3-.21-.3.21.36-.08-.06-.13-.3.21.36-.08-.76.18.76-.16-.3.06.31,0v0l-.3.06.31,0s0-.09,0-.19,0-.29,0-.45l-.78-.05.78.07,0-.64.1-1.24-1.9.75h0L3,17.67l-.11,0h0v0h0v0l0,.31V17.7h0l0,.31v.2l.18-.47a.59.59,0,0,0-.18,0v.51l.18-.47-.19.5.43-.33a.62.62,0,0,0-.24-.17l-.19.5.43-.33-.19.15.21-.12,0,0-.19.15.21-.12,0,0h0A1.64,1.64,0,0,0,3,17.42a2,2,0,0,0-.48-.31h0l-.06,0h0l-.06.1.08-.09h0l-.06.1.08-.09,0,0,0,0h0l0,0,0,0a3.23,3.23,0,0,1-.2-.36h0c-.07-.13-.13-.28-.18-.39a.79.79,0,0,1,0-.13H2l-.22.06.22,0v0l-.22.06.22,0-.59.11H2a.8.8,0,0,0,0-.11l-.59.11H2A1,1,0,0,0,2,16a2.49,2.49,0,0,0-.29-.59h0a1.18,1.18,0,0,1-.1-.19v0h0l-.5.13h.51a1.09,1.09,0,0,0,0-.13l-.5.13h.3l.21,0v0H1.35l.21,0h0l.05-.09.11-.12h0a1.54,1.54,0,0,0,.44-.53,3.53,3.53,0,0,0,.27-.7h0a2.64,2.64,0,0,1,.31-.7,1.62,1.62,0,0,1,.46-.43l-.45-.64.44.65a1.22,1.22,0,0,1,.24-.14h0a2,2,0,0,0,.44-.05,2.4,2.4,0,0,0,.44-.12l-.27-.73.26.74a1,1,0,0,1,.29-.05h.2l.37,0h.25l.15,0a.89.89,0,0,0,.26-.1l0,0,0,0A.87.87,0,0,0,6.17,12a1.82,1.82,0,0,0,.15-.32,8.78,8.78,0,0,0,.34-1.32h0c0-.11,0-.25.08-.36s0-.1,0-.14v0h0l-.13-.06.13.06h0l-.13-.06.13.06h0a3,3,0,0,0,.09-.35,1.45,1.45,0,0,0,0-.37H6.54l.39.06V9.1H6.54l.39.06h0A1.07,1.07,0,0,1,7,9a1.73,1.73,0,0,1,.1-.24h0a3.12,3.12,0,0,0,.18-.42,1.6,1.6,0,0,0,.09-.51,1.47,1.47,0,0,0-.15-.64,3.12,3.12,0,0,0-.3-.53h0a4.73,4.73,0,0,1-.28-.47A.47.47,0,0,1,6.56,6h0l-.12,0,.12,0h0l-.12,0,.12,0-.4.06h.41V6l-.4.06H6.07l.41.27a.48.48,0,0,0,.08-.27H6.07l.41.27-.21-.14.12.24a.29.29,0,0,0,.09-.1l-.21-.14.12.24,0,0v0h0l0,0v0A1.44,1.44,0,0,0,7.1,6.3.9.9,0,0,0,7.46,6a.94.94,0,0,0,.17-.54A1.07,1.07,0,0,0,7.54,5a1.38,1.38,0,0,0-.29-.4,1.68,1.68,0,0,0-.37-.27h0l-.09.16.15-.1-.06-.06-.09.16.15-.1-.35.24H7a.4.4,0,0,0-.07-.24l-.35.24H6.49L7,4.87a.59.59,0,0,0,0-.22H6.49L7,4.87l-.44-.21L6.82,5A.45.45,0,0,0,7,4.87l-.44-.21L6.82,5h0l-.46-.56.28.67A.91.91,0,0,0,6.82,5l-.46-.56.28.67-.18-.43.11.45.07,0-.18-.43.11.45.26,0,.51,0h0L8.7,5h0l.19,0h0V4.68L8.83,5H8.9V4.68L8.83,5l.1-.4-.24.34A.38.38,0,0,0,8.83,5l.1-.4-.24.34.06-.09-.07.08h0l.06-.09-.07.08L8.74,5l.55-.56-.57.53L8.79,5h0L9,4.91,8.77,5l0,0L9,4.91,8.77,5l.59-.24H8.73a.54.54,0,0,0,0,.24l.59-.24H8.73a1,1,0,0,0,0,.28,1.82,1.82,0,0,0,.29.63,1.79,1.79,0,0,0,.2.28,1.37,1.37,0,0,0,.35.29h0l.16.07a3.11,3.11,0,0,0,.44.08,4.12,4.12,0,0,0,.51,0V5.65l0,.78.6,0h.21L13,5.63h0c.5-.28.84-.47,1.11-.66a2.44,2.44,0,0,0,.39-.34,1,1,0,0,0,.17-.28A1,1,0,0,0,14.73,4a1,1,0,0,0-.09-.42,1.17,1.17,0,0,0-.25-.35A2.49,2.49,0,0,0,14.16,3h0a2.65,2.65,0,0,1-.23-.22c-.07-.08-.06-.07-.06-.08a.67.67,0,0,1,0-.21h0V2.37h0l-.38-.07.25.27a.37.37,0,0,0,.13-.2l-.38-.07.25.27-.34-.38.17.48a.42.42,0,0,0,.17-.1l-.34-.38.17.48-.14-.39v.42a.29.29,0,0,0,.14,0l-.14-.39v.19l0,.23h0V2.46l0,.23,0-.09,0,.09h0l0-.09,0,.09h0a2,2,0,0,1,.39.21h0a2.23,2.23,0,0,0,.33.2,1.21,1.21,0,0,0,.49.12,1,1,0,0,0,.48-.13h0a1.1,1.1,0,0,0,.26-.18,1.31,1.31,0,0,0,.14-.16.57.57,0,0,0,.09-.16.76.76,0,0,0,.07-.32h-.73l.7.22a.81.81,0,0,0,0-.22h-.73l.7.22-.56-.18.51.3a1,1,0,0,1,.05-.12l-.56-.18.51.3-.18-.11.17.12h0l-.18-.11.17.12,0-.07-.6-.5.57.54-.28-.27.19.34.09-.07-.28-.27.19.34-.11-.19.07.21,0,0-.11-.19.07.21a1.91,1.91,0,0,1,.41,0h0A4.12,4.12,0,0,0,17,2.42a2,2,0,0,0,.85-.64h0c.05-.06.1-.14.16-.2l.1-.12h0Z"/></svg>