<svg width="49" height="51" xmlns="http://www.w3.org/2000/svg" viewBox="0 0 58.58 60.98"><title>client_1</title><path d="M29.29,40.17a7.4,7.4,0,0,0,0-14.8,7.4,7.4,0,0,0,0,14.8Zm0-12.86a5.55,5.55,0,1,1-5.41,5.55A5.53,5.53,0,0,1,29.29,27.31Zm-5-15.91-.88,5.27a.91.91,0,0,0,.35.93.93.93,0,0,0,1,.09l4.61-2.5L34,17.69a.94.94,0,0,0,1-.09.9.9,0,0,0,.36-.93l-.89-5.27,3.73-3.79a1,1,0,0,0,.26-.93A.86.86,0,0,0,37.71,6L32.57,5.3,30.26.49a.89.89,0,0,0-1.59,0L26.36,5.3,21.22,6a.91.91,0,0,0-.44,1.57ZM26.9,7.05c.26,0,.53-.27.71-.46l1.68-3.7L31,6.5a.7.7,0,0,0,.71.46l3.82.65-2.75,2.77a1.34,1.34,0,0,0-.27.84l.62,4-3.37-1.85a.64.64,0,0,0-.44-.09.76.76,0,0,0-.44.09l-3.37,1.85.62-4a1,1,0,0,0-.27-.84L23.08,7.61ZM14.48,22.78a.9.9,0,0,0,.36-.93L14,16.58l3.73-3.79a1,1,0,0,0,.26-.93.86.86,0,0,0-.71-.64l-5.14-.74L9.79,5.57A1,1,0,0,0,9,5a.85.85,0,0,0-.8.55L5.88,10.38l-5.14.74a.89.89,0,0,0-.71.65.86.86,0,0,0,.27.93L4,16.58l-.88,5.27a.9.9,0,0,0,.35.93.93.93,0,0,0,1,.09l4.61-2.5,4.61,2.5C13.86,23.06,14.22,23,14.48,22.78ZM9.43,18.43a.63.63,0,0,0-.8,0L5.26,20.28l.62-4a1,1,0,0,0-.26-.83L2.87,12.7l3.81-.56c.27,0,.53-.28.71-.46L9.08,8.07l1.68,3.61a.7.7,0,0,0,.71.46l3.81.56-2.75,2.77a1.39,1.39,0,0,0-.26.83l.62,4Zm49.12-6.57a.87.87,0,0,0-.71-.64l-5.14-.74L50.39,5.67a.9.9,0,0,0-1.6,0l-2.3,4.81-5.14.74a.86.86,0,0,0-.71.64.88.88,0,0,0,.26.93l3.73,3.79-.89,5.27a.94.94,0,0,0,1.33,1l4.61-2.5,4.61,2.5c.27.19.62.09,1-.09a.91.91,0,0,0,.35-.93l-.89-5.27,3.73-3.79A1.66,1.66,0,0,0,58.55,11.86ZM53,15.56a1.33,1.33,0,0,0-.26.84l.62,4L50,18.52a.67.67,0,0,0-.45-.09.79.79,0,0,0-.44.09l-3.37,1.85.62-4a1,1,0,0,0-.26-.84L43.3,12.79l3.81-.56c.27,0,.53-.27.71-.46L49.5,8.16l1.69,3.61a.69.69,0,0,0,.71.46l3.81.56ZM46,39.24h-.8A18.89,18.89,0,0,0,45.43,36c0-9.24-7.27-16.83-16.14-16.83S13.15,26.66,13.15,36s7.19,16.84,16.14,16.84a15.19,15.19,0,0,0,6.38-1.39,10.35,10.35,0,0,0,20.66-1.29A10.64,10.64,0,0,0,46,39.24Zm-31-3.05c0-8.32,6.47-15.08,14.36-15.08s14.36,6.66,14.36,15a15.54,15.54,0,0,1-.44,3.51,10.52,10.52,0,0,0-5.05,3.33,8.84,8.84,0,0,0-5.94-2.22H26.36a9.15,9.15,0,0,0-8.06,5A15.36,15.36,0,0,1,14.93,36.19ZM35.58,49.51A13.73,13.73,0,0,1,19.63,47.1a7.38,7.38,0,0,1,6.73-4.53h5.86a7.15,7.15,0,0,1,4.87,1.85A10.93,10.93,0,0,0,35.58,49.51ZM46,59.13a9,9,0,1,1,8.6-9A8.8,8.8,0,0,1,46,59.13Zm5-13L44.45,52,42,49a.84.84,0,0,0-1.24-.09.92.92,0,0,0-.09,1.3l3,3.79a1.49,1.49,0,0,0,.62.37,1.14,1.14,0,0,0,.62-.19l7.18-6.56a.92.92,0,0,0,.09-1.3A.85.85,0,0,0,50.92,46.09Z"/></svg>