<svg width="48" height="40" xmlns="http://www.w3.org/2000/svg" viewBox="0 0 39.4 32.83"><title>images</title><path d="M38.4,0H5.93a1,1,0,0,0-1,1V5H1A1,1,0,0,0,0,6V31.82a1,1,0,0,0,1,1H33.47a1,1,0,0,0,1-1v-4H38.4a1,1,0,0,0,1-1V1A1,1,0,0,0,38.4,0ZM2,7H32.51v15.8l-7.88-8.68a1,1,0,0,0-1.45,0L13.73,24.65l-4.4-4.84a1,1,0,0,0-.75-.34,1,1,0,0,0-.74.34L2,26.25ZM32.55,30.85H2v-1.6L8.58,22,13,26.8a1,1,0,0,0,.75.34,1,1,0,0,0,.74-.34L24,16.35l8.58,9.48Zm4.9-5.06h-3V6a1,1,0,0,0-1-1H7V2H37.45ZM12.07,13.32A3.54,3.54,0,0,0,8.58,9.78a3.54,3.54,0,0,0,0,7.08A3.54,3.54,0,0,0,12.07,13.32Zm-5,0a1.5,1.5,0,1,1,1.49,1.51A1.49,1.49,0,0,1,7.09,13.32Z"/></svg>