<svg width="50" height="50" xmlns="http://www.w3.org/2000/svg" viewBox="0 0 42.44 42.44"><title>online</title><path d="M37.56,26.49V24.62a3.12,3.12,0,0,0-.75-2.05,2.86,2.86,0,0,0-2.51-1,3.19,3.19,0,0,0-2.49,1.68c-2.4,4.48-5.79,7.16-9,9.52a4.38,4.38,0,0,1-4.57.59,3.87,3.87,0,0,1-2-3A15.24,15.24,0,0,0,28.5,22.64h0a15.08,15.08,0,0,0,0-14.85.6.6,0,0,0-.06-.11A15.26,15.26,0,0,0,15.24,0h0A15.24,15.24,0,0,0,2,7.65.91.91,0,0,0,2,7.78,15.08,15.08,0,0,0,2,22.63v0a15.25,15.25,0,0,0,12.47,7.7,5.61,5.61,0,0,0,3,4.54,5.39,5.39,0,0,0,2.48.59,6.61,6.61,0,0,0,3.86-1.32c3.42-2.47,7-5.29,9.55-10.09a1.53,1.53,0,0,1,1.17-.79,1.15,1.15,0,0,1,1,.39,1.47,1.47,0,0,1,.34.95v1.87A5.73,5.73,0,0,0,31,32.13v4.6a5.73,5.73,0,0,0,11.46,0v-4.6A5.72,5.72,0,0,0,37.56,26.49ZM1.75,16H8.82a34.37,34.37,0,0,0,.52,5.41H3.25A13.39,13.39,0,0,1,1.75,16Zm1.5-7.1H9.34a34.36,34.36,0,0,0-.52,5.4H1.75A13.39,13.39,0,0,1,3.25,8.94Zm25.48,5.4H21.65a34.36,34.36,0,0,0-.52-5.4h6.09A13.56,13.56,0,0,1,28.73,14.34Zm-1.51,7.11H21.13A34.37,34.37,0,0,0,21.65,16h7.08A13.56,13.56,0,0,1,27.22,21.45Zm-11.13,7V23.15H19C18.27,25.89,17.19,27.78,16.09,28.44Zm0-7V16H20a33,33,0,0,1-.56,5.41ZM20,14.34H16.09V8.94h3.3A33.09,33.09,0,0,1,20,14.34ZM16.09,7.25V2c1.1.66,2.18,2.54,2.92,5.29ZM14.39,2v5.3H11.47C12.21,4.5,13.29,2.61,14.39,2Zm0,7v5.4H10.52a33.09,33.09,0,0,1,.56-5.4ZM10.52,16h3.87v5.41H11.08A33,33,0,0,1,10.52,16Zm3.87,7.11v5.29c-1.1-.66-2.18-2.55-2.92-5.29Zm4.22,5.11a15.2,15.2,0,0,0,2.15-5.11h5.39A13.56,13.56,0,0,1,18.61,28.26Zm7.54-21H20.77a15.31,15.31,0,0,0-2.16-5.11A13.51,13.51,0,0,1,26.15,7.25ZM11.86,2.14A15.11,15.11,0,0,0,9.71,7.25H4.32A13.54,13.54,0,0,1,11.86,2.14Zm-7.53,21H9.71a15.14,15.14,0,0,0,2.16,5.1A13.54,13.54,0,0,1,4.33,23.15Zm36.32,8.13H37.56V28.21A4,4,0,0,1,40.65,31.28Zm-4.79-3.07v3.07H32.78A4,4,0,0,1,35.86,28.21Zm4.88,8.52a4,4,0,0,1-8.05,0V33h8.05Z"/></svg>