<svg width="46" height="40" xmlns="http://www.w3.org/2000/svg" viewBox="0 0 55.33 48.11"><title>partner_1</title><path d="M42.91,23A12.57,12.57,0,1,0,55.33,35.55,12.5,12.5,0,0,0,42.91,23Zm7.18,19.84a10.08,10.08,0,0,1-14.37,0,10.38,10.38,0,0,1,0-14.54,10.08,10.08,0,0,1,14.37,0,10.36,10.36,0,0,1,0,14.54ZM47.54,31.05,41,37.63l-2.76-2.78a1.11,1.11,0,0,0-1.59,0,1.15,1.15,0,0,0,0,1.61l3.55,3.6a1.13,1.13,0,0,0,1.6,0l7.31-7.4a1.15,1.15,0,0,0,0-1.61A1.12,1.12,0,0,0,47.54,31.05ZM55,.33A1.14,1.14,0,0,0,54.2,0H1.13a1.14,1.14,0,0,0-.8.33A1.18,1.18,0,0,0,0,1.14v11.3a1.16,1.16,0,0,0,.33.81,1.15,1.15,0,0,0,.8.34H3.35V41.26a1.18,1.18,0,0,0,.33.81,1.15,1.15,0,0,0,.8.33H27.66a1.14,1.14,0,0,0,0-2.28H24V2.28h7.24V21.2a1.13,1.13,0,1,0,2.26,0V13.59H49.72V21.2a1.13,1.13,0,1,0,2.25,0V13.59H54.2a1.15,1.15,0,0,0,.8-.34,1.16,1.16,0,0,0,.33-.81V1.14A1.18,1.18,0,0,0,55,.33ZM21.79,40.12H5.61V13.59H21.79Zm0-28.82H2.26v-9H21.79Zm31.28,0H33.54v-9H53.07Z"/></svg>