<svg width="44" height="40" xmlns="http://www.w3.org/2000/svg" viewBox="0 0 34.27 31.15"><title>client</title><path d="M13.85,3.39V2.66A2.65,2.65,0,0,0,13.08.78,2.59,2.59,0,0,0,11.23,0,2.63,2.63,0,0,0,9.37.78,2.7,2.7,0,0,0,8.6,2.66v.73a2.7,2.7,0,0,0,.77,1.88,2.63,2.63,0,0,0,1.86.78,2.59,2.59,0,0,0,1.85-.78A2.65,2.65,0,0,0,13.85,3.39Zm-1.63,0a1,1,0,0,1-1,1,1,1,0,0,1-.7-.3,1,1,0,0,1-.29-.71V2.66A1,1,0,0,1,10.53,2a.94.94,0,0,1,.7-.3,1,1,0,0,1,.7.3,1,1,0,0,1,.29.71Zm13.45,0V2.66A2.7,2.7,0,0,0,24.9.78a2.6,2.6,0,0,0-3.71,0,2.65,2.65,0,0,0-.77,1.88v.73a2.65,2.65,0,0,0,.77,1.88,2.6,2.6,0,0,0,3.71,0A2.7,2.7,0,0,0,25.67,3.39ZM24,3.39a1,1,0,0,1-.29.71,1,1,0,0,1-.71.3,1,1,0,0,1-1-1V2.66A1,1,0,0,1,22.34,2a1,1,0,0,1,.7-.3,1,1,0,0,1,.71.3,1,1,0,0,1,.29.71Zm4.79,6.27h.1a2.8,2.8,0,0,0,2-.83,2.87,2.87,0,0,0,.82-2V5.9a2.9,2.9,0,0,0-.82-2,2.8,2.8,0,0,0-2-.83h-.1a2.76,2.76,0,0,0-2,.83,2.87,2.87,0,0,0-.83,2v.92a2.83,2.83,0,0,0,.83,2A2.76,2.76,0,0,0,28.83,9.66ZM27.66,5.9A1.2,1.2,0,0,1,28,5.06a1.17,1.17,0,0,1,.83-.35h.1A1.2,1.2,0,0,1,30.1,5.9v.92a1.15,1.15,0,0,1-.35.84,1.13,1.13,0,0,1-.82.35h-.1A1.13,1.13,0,0,1,28,7.66a1.19,1.19,0,0,1-.34-.84Zm5.85,4.91h0a2.85,2.85,0,0,0-2.16-1h-.51a.82.82,0,0,0-.69.37h0l-.4.64-.42-.23h0a.91.91,0,0,0-.4-.1.78.78,0,0,0-.41.12h0l-.32.19-.34-.58h0a.81.81,0,0,0-.7-.4h-.58a2.9,2.9,0,0,0-2.17,1h0a3,3,0,0,0-.76,2,1.77,1.77,0,0,0,0,.23v5.48a.84.84,0,0,0,.16.49h0l1.54,2.14.35,8h0a2.12,2.12,0,0,0,.63,1.41,2,2,0,0,0,1.41.57h2.43a2,2,0,0,0,2-2h0l.35-8L34.1,19h0a1.34,1.34,0,0,0,.12-.24,1.09,1.09,0,0,0,0-.25V13c0-.08,0-.15,0-.23A3.07,3.07,0,0,0,33.51,10.81Zm-.88,2.12v5.32L31.1,20.38a1,1,0,0,0-.11.21.86.86,0,0,0,0,.24h0l-.37,8.28h0a.4.4,0,0,1-.12.28.43.43,0,0,1-.29.12H27.74a.41.41,0,0,1-.4-.4h0L27,20.82h0a.62.62,0,0,0,0-.23.71.71,0,0,0-.11-.21l-1.53-2.13V12.94h0v-.15a1.3,1.3,0,0,1,.33-.87h0a1.21,1.21,0,0,1,.43-.32,1.32,1.32,0,0,1,.53-.11h.11l.51.89h0a.81.81,0,0,0,.29.29.93.93,0,0,0,.39.12h0a.77.77,0,0,0,.42-.12h0l.62-.37.67.38h0a.8.8,0,0,0,.79,0,.8.8,0,0,0,.3-.28h0l.57-.91h.07a1.25,1.25,0,0,1,1,.43h0a1.31,1.31,0,0,1,.34.88A.57.57,0,0,1,32.63,12.93ZM17,9.66h.1a2.78,2.78,0,0,0,2-.83,2.82,2.82,0,0,0,.82-2V5.9a2.86,2.86,0,0,0-.82-2,2.78,2.78,0,0,0-2-.83H17a2.8,2.8,0,0,0-2,.83,2.86,2.86,0,0,0-.82,2v.92A2.82,2.82,0,0,0,17,9.66ZM15.84,5.9A1.18,1.18,0,0,1,17,4.71h.1a1.17,1.17,0,0,1,.83.35,1.2,1.2,0,0,1,.34.84v.92a1.19,1.19,0,0,1-.34.84,1.13,1.13,0,0,1-.83.35H17a1.16,1.16,0,0,1-.83-.35,1.19,1.19,0,0,1-.34-.84Zm5.85,4.92h0a2.85,2.85,0,0,0-2.16-1H19a.82.82,0,0,0-.69.37h0l-.4.64-.42-.23h0a.91.91,0,0,0-.4-.1.75.75,0,0,0-.41.12h0l-.32.19L16,10.24h0a.92.92,0,0,0-.3-.29.75.75,0,0,0-.4-.11h-.58a2.93,2.93,0,0,0-2.18,1h0a3,3,0,0,0-.76,2c0,.08,0,.15,0,.23v5.48A.85.85,0,0,0,12,19h0l1.54,2.14.35,8h0a2.11,2.11,0,0,0,.62,1.41,2.06,2.06,0,0,0,1.42.57h2.43a2.06,2.06,0,0,0,1.42-.57,2.09,2.09,0,0,0,.62-1.41h0l.35-8L22.28,19h0a1.34,1.34,0,0,0,.12-.24,1.07,1.07,0,0,0,0-.25V13h0a1.85,1.85,0,0,0,0-.23A3,3,0,0,0,21.69,10.82Zm-.88,2.11h0v5.31l-1.53,2.13a.7.7,0,0,0-.11.21.61.61,0,0,0,0,.24h0l-.37,8.28h0a.41.41,0,0,1-.4.4H15.93a.38.38,0,0,1-.28-.12.41.41,0,0,1-.13-.28h0l-.36-8.28h0a1.85,1.85,0,0,0,0-.23,1.06,1.06,0,0,0-.11-.21l-1.54-2.13V12.94h0a.76.76,0,0,1,0-.15,1.31,1.31,0,0,1,.34-.87h0a1.25,1.25,0,0,1,.44-.32,1.27,1.27,0,0,1,.52-.11h.12l.51.89h0a.74.74,0,0,0,.29.29.89.89,0,0,0,.39.12h0a.78.78,0,0,0,.43-.12h0l.61-.37.68.38h0a.71.71,0,0,0,.4.11.75.75,0,0,0,.38-.1.73.73,0,0,0,.3-.28h0l.58-.91h.06a1.27,1.27,0,0,1,1,.43,1.3,1.3,0,0,1,.33.86A.76.76,0,0,1,20.81,12.93ZM5.16,9.66h.1a2.78,2.78,0,0,0,2-.83,2.82,2.82,0,0,0,.82-2V5.9a2.86,2.86,0,0,0-.82-2,2.78,2.78,0,0,0-2-.83h-.1a2.8,2.8,0,0,0-2,.83,2.86,2.86,0,0,0-.82,2v.92a2.82,2.82,0,0,0,2.8,2.84ZM4,5.9A1.18,1.18,0,0,1,5.16,4.71h.1a1.17,1.17,0,0,1,.83.35,1.2,1.2,0,0,1,.34.84v.92a1.19,1.19,0,0,1-.34.84A1.13,1.13,0,0,1,5.26,8h-.1a1.16,1.16,0,0,1-.83-.35A1.19,1.19,0,0,1,4,6.82ZM7.7,9.83H7.19a.82.82,0,0,0-.69.37h0l-.4.64-.42-.23h0a.87.87,0,0,0-.39-.1.79.79,0,0,0-.42.12h0l-.32.19-.34-.58h0a.81.81,0,0,0-.69-.4H2.93a2.91,2.91,0,0,0-2.17,1h0a3,3,0,0,0-.76,2A1.85,1.85,0,0,0,0,13H0v5.48A.84.84,0,0,0,.17,19h0l1.55,2.14.35,8h0a2.07,2.07,0,0,0,.62,1.41,2,2,0,0,0,1.41.57H6.54A2,2,0,0,0,8,30.58a2,2,0,0,0,.62-1.41h0l.36-8L10.47,19h0a1.34,1.34,0,0,0,.12-.24,1.09,1.09,0,0,0,0-.25V13c0-.08,0-.15,0-.23a3,3,0,0,0-.76-2A2.91,2.91,0,0,0,7.7,9.83ZM9,12.93v5.32L7.46,20.38a1,1,0,0,0-.11.21,1.5,1.5,0,0,0,0,.24h0L7,29.11H7a.4.4,0,0,1-.12.28.42.42,0,0,1-.28.12H4.1a.42.42,0,0,1-.28-.12.4.4,0,0,1-.12-.28h0l-.37-8.28h0a.93.93,0,0,0,0-.23,1.06,1.06,0,0,0-.11-.21L1.64,18.25V12.94h0s0-.1,0-.15A1.31,1.31,0,0,1,2,11.91H2a1.34,1.34,0,0,1,.44-.32,1.31,1.31,0,0,1,.52-.11H3l.51.89a.81.81,0,0,0,.29.29.89.89,0,0,0,.39.12h0a.77.77,0,0,0,.42-.12h0l.62-.37.67.38H6a.8.8,0,0,0,.79,0,.88.88,0,0,0,.3-.28h0l.57-.91h.07a1.27,1.27,0,0,1,1,.43h0A1.29,1.29,0,0,1,9,12.8.57.57,0,0,1,9,12.93Zm.89-2.12ZM3.55,12.37Z"/></svg>