<svg width="40" height="44" xmlns="http://www.w3.org/2000/svg" viewBox="0 0 30.25 33.28"><title>payment</title><path d="M28,0H14.33a2.21,2.21,0,0,0-2.22,2.21h0V8.83A17.72,17.72,0,0,0,8.63,10a29.49,29.49,0,0,0-2.81,1.41A7,7,0,0,0,2.36,16.3L0,29.78a.85.85,0,0,0,1.68.29h0L4,16.57a5.29,5.29,0,0,1,2.63-3.71,27.08,27.08,0,0,1,2.64-1.32,18.09,18.09,0,0,1,2.8-.95v5.66a6.4,6.4,0,0,0-.62-.2A.85.85,0,1,0,11,17.69a3.28,3.28,0,0,1,1.23.6,7.29,7.29,0,0,1-2,2,.84.84,0,0,0-.22,1.18.85.85,0,0,0,1.19.22h0a8.71,8.71,0,0,0,2.51-2.62l2.78-4.36a1.5,1.5,0,1,1,2.54,1.6h0L17,19.69a7.93,7.93,0,0,0-1.2,4.45,6.23,6.23,0,0,1-2.73,5.35l-.22.15A8,8,0,0,0,10.61,32a.85.85,0,0,0,.27,1.17.86.86,0,0,0,1.18-.27h0A6.33,6.33,0,0,1,13.83,31l.22-.15a7.9,7.9,0,0,0,2.85-3.52l.21.21a2.69,2.69,0,0,0,3.8,0,2.74,2.74,0,0,0,.69-1.11,2.61,2.61,0,0,0,3.11-2,2.58,2.58,0,0,0-.08-1.43l0-.12H28a2.21,2.21,0,0,0,2.21-2.21h0V2.21A2.21,2.21,0,0,0,28,0ZM20.55,17.25a3.2,3.2,0,0,0-5.42-3.4l-1.3,2V2.21a.51.51,0,0,1,.5-.51h10V21.27H18.09a5.57,5.57,0,0,1,.37-.68Zm-.89,9.21a1,1,0,0,1-1.33-.08l-.91-.91a8.05,8.05,0,0,0,.09-1.39A6.07,6.07,0,0,1,17.58,23h1a.1.1,0,0,0,0,.06l1.33,2.15A1,1,0,0,1,19.66,26.46ZM23,23.65a.89.89,0,0,1-.57,1.14.88.88,0,0,1-1.05-.37h0s-.05-.09-.08-.14L20.52,23h2.27Zm5.52-2.9a.52.52,0,0,1-.52.52H26V1.7h2a.51.51,0,0,1,.51.51h0Z"/></svg>