<svg width="54" height="40" xmlns="http://www.w3.org/2000/svg" viewBox="0 0 38.34 28.4"><title>service</title><path d="M36.49,2.87H33V2.35a2.32,2.32,0,1,0-4.63,0v.52H24.88A1.81,1.81,0,0,0,23.07,4.7a1.8,1.8,0,0,0,1.81,1.83h3.49v2a9.52,9.52,0,0,1-3.53-1.07,11.65,11.65,0,0,0-5.73-1.24h0a11.46,11.46,0,0,0-5.69,1.24A10.63,10.63,0,0,1,9.85,8.48V6.53h3.49A1.82,1.82,0,0,0,15.15,4.7a1.79,1.79,0,0,0-1.81-1.83H9.85V2.35a2.32,2.32,0,1,0-4.63,0v.52H1.8A1.81,1.81,0,0,0,0,4.7,1.79,1.79,0,0,0,1.8,6.53H5.3V8.12c0,3.19.9,5.18,2.31,5.18a1.77,1.77,0,0,0,1.57-1.15h3.26a5.07,5.07,0,0,1,2.94,4.42c.16,1.75.94,1.87,1.92,1.87H21c.94,0,1.73-.16,1.89-1.91a5.18,5.18,0,0,1,2.94-4.42h3.3a1.8,1.8,0,0,0,1.56,1.15c1.42,0,2.32-2,2.32-5.18V6.49h3.49a1.82,1.82,0,0,0,1.81-1.83A1.79,1.79,0,0,0,36.49,2.87ZM30.72,1.19a1.21,1.21,0,0,1,1,.64H29.7A1.21,1.21,0,0,1,30.72,1.19Zm-23.15,0a1.2,1.2,0,0,1,1,.64h-2A1.21,1.21,0,0,1,7.57,1.19ZM1.8,5.34a.68.68,0,0,1-.62-.64.62.62,0,0,1,.62-.64H13.38a.64.64,0,0,1,0,1.28ZM31.86,8.08c0,3-.78,4-1.14,4-.19,0-.47-.32-.66-.8l-.16-.36h-4c-.94,0-3.89,1.95-4.12,5.54-.08.8-.12.8-.71.8H17.27c-.63,0-.63,0-.71-.8-.24-3.59-3.18-5.54-4.12-5.54h-4l-.16.36c-.2.48-.47.8-.67.8-.35,0-1.13-1-1.13-4V7.57H8.71v.51a8.36,8.36,0,0,1,0,1l0,.68.67,0a11.37,11.37,0,0,0,4.59-1.24,10.84,10.84,0,0,1,5.22-1.11h.08a10.87,10.87,0,0,1,5.22,1.11A11.47,11.47,0,0,0,29,9.72l.67,0,0-.68a8,8,0,0,1,0-1V7.57h2.27ZM36.49,5.3H25A.64.64,0,0,1,25,4H36.53a.62.62,0,0,1,.63.64A.66.66,0,0,1,36.49,5.3ZM27,13.5s-.08,0-.12-.08a1.76,1.76,0,0,0-2.47.12A1.88,1.88,0,0,0,24,14.82a1.65,1.65,0,0,0,.54,1.23.37.37,0,0,0,.2.12c1.14.52,4.79,2.83,3.77,10.12a1.59,1.59,0,0,0,.35,1.31,2.07,2.07,0,0,0,1.18.72h.23A1.85,1.85,0,0,0,32,26.76C32.88,20.67,31.12,15.93,27,13.5Zm3.84,13.14a.59.59,0,0,1-.67.52.85.85,0,0,1-.39-.24.8.8,0,0,1-.12-.43c1.1-8-2.94-10.64-4.39-11.36a.62.62,0,0,1-.12-.35.6.6,0,0,1,.16-.44.59.59,0,0,1,.82,0,1.69,1.69,0,0,0,.28.2C30.1,16.69,31.67,21,30.88,26.64Zm-17-10.39.2-.12a1.66,1.66,0,0,0,.55-1.23,1.93,1.93,0,0,0-.47-1.28,1.71,1.71,0,0,0-2.48-.2s-.07,0-.11.08c-4.08,2.43-5.85,7.17-5,13.34A1.8,1.8,0,0,0,8.32,28.4h.23a1.85,1.85,0,0,0,1.18-.72,1.74,1.74,0,0,0,.35-1.31C9.06,19.08,12.71,16.77,13.85,16.25Zm-5,10.24a.44.44,0,0,1-.12.43.69.69,0,0,1-.39.24.61.61,0,0,1-.67-.52c-.78-5.61.79-9.95,4.44-12.14a2.1,2.1,0,0,0,.27-.2.55.55,0,0,1,.39-.16.61.61,0,0,1,.59.64.35.35,0,0,1-.12.35C11.89,15.81,7.77,18.48,8.87,26.49Zm10.32-.6a8.29,8.29,0,0,1-6.36-3l-1.14.92a9.68,9.68,0,0,0,7.46,3.54,9.58,9.58,0,0,0,7.45-3.54l-1.06-.92A8.32,8.32,0,0,1,19.19,25.89Zm-4.28-4.82L13.85,22a6.87,6.87,0,0,0,10.6,0l-1.06-.92a5.59,5.59,0,0,1-4.24,2A5.46,5.46,0,0,1,14.91,21.07Zm7.42-.88-1.06-.91a2.79,2.79,0,0,1-2.12,1,2.72,2.72,0,0,1-2.12-1L16,20.19a4.09,4.09,0,0,0,6.36,0Z"/></svg>