<svg xmlns="http://www.w3.org/2000/svg" viewBox="0 0 34.24 38.9"><title>money</title><path d="M34.22,22a3.31,3.31,0,0,1-.95,2.64l-9.05,9.13a6.86,6.86,0,0,1-4.91,2H8.14L5.31,38.61a1,1,0,0,1-1.39,0,1,1,0,0,1,0-1.4L7,34.07a.94.94,0,0,1,.69-.29H19.31a4.91,4.91,0,0,0,3.54-1.48l9-9.13a1.36,1.36,0,0,0-.06-1.91,1.34,1.34,0,0,0-1.84,0l-7.14,7.28,0,0a3.23,3.23,0,0,1-2.31,1h-6.9a1,1,0,0,1,0-2h6.91a1.33,1.33,0,0,0,1.29-1.05,1.33,1.33,0,0,0-1.29-1.63H8.62a4.12,4.12,0,0,0-2.94,1.22L3.94,27.83a1,1,0,0,1-1.38.11,1,1,0,0,1-.11-1.4l.11-.11L4.3,24.68a6.07,6.07,0,0,1,4.33-1.81H20.54a3.29,3.29,0,0,1,3,2.06l5-5.06a3.3,3.3,0,0,1,4.68,0A3.37,3.37,0,0,1,34.22,22ZM26.36,8.87A2.4,2.4,0,0,0,25,7.5l-2.53-1L22,3.8a2.4,2.4,0,0,0-2.79-1.95l-.16,0-2.64.67-2-1.89a2.37,2.37,0,0,0-3.38.08L11,.87,9.22,3l-2.7-.37A2.4,2.4,0,0,0,3.83,4.69c0,.06,0,.12,0,.18L3.64,7.61,1.25,8.91a2.42,2.42,0,0,0-1,3.27.83.83,0,0,1,.07.13l1.46,2.31L.64,17.1a2.43,2.43,0,0,0,1.12,3.22l.16.07L5,21.6a1,1,0,0,0,.72-1.85h0l-3-1.21A.42.42,0,0,1,2.41,18v0l1.41-3a1,1,0,0,0-.06-1L2,11.25a.44.44,0,0,1,.14-.59l0,0L5.06,9.08a1,1,0,0,0,.51-.8L5.78,5a.42.42,0,0,1,.15-.31.39.39,0,0,1,.33-.09L9.49,5a1,1,0,0,0,.89-.35l2.08-2.54a.43.43,0,0,1,.6-.06l0,0,2.36,2.28a1,1,0,0,0,.92.24l3.15-.82a.42.42,0,0,1,.51.31v0l.61,3.24a1,1,0,0,0,.61.75l3,1.21a.43.43,0,0,1,.22.56l0,0-1.41,3a1,1,0,0,0,.06,1l1.75,2.78a.43.43,0,0,1-.13.59l0,0L21.87,18.8a1,1,0,0,0-.44,1.34,1,1,0,0,0,1.31.44l.06,0L25.67,19a2.44,2.44,0,0,0,1-3.28l-.09-.14-1.46-2.32,1.18-2.47a2.42,2.42,0,0,0,.08-1.92Zm-12.9,9.92a1.76,1.76,0,0,1-1.65-1.11,1,1,0,0,0-1.29-.53,1,1,0,0,0-.53,1.3,3.76,3.76,0,0,0,3.47,2.33,3.58,3.58,0,0,0,3.75-3.58c0-1-.46-2.8-3.5-3.52h0c-2-.46-2-1.31-2-1.58a1.64,1.64,0,0,1,1.79-1.59,1.79,1.79,0,0,1,1.65,1.1,1,1,0,1,0,1.83-.71.14.14,0,0,0,0-.06,3.75,3.75,0,0,0-2.48-2.18V8a1,1,0,1,0-2,0v.71a3.51,3.51,0,0,0-2.76,3.44c0,1,.46,2.8,3.5,3.52h0c2,.46,2,1.31,2,1.59a1.66,1.66,0,0,1-1.81,1.58Z"/></svg>