<svg xmlns="http://www.w3.org/2000/svg" viewBox="0 0 35.84 35.84"><title>user</title><path d="M17.92,0A17.92,17.92,0,1,0,35.84,17.92,17.92,17.92,0,0,0,17.92,0ZM8.26,30.64a16.66,16.66,0,0,1,5.53-2.54,1.24,1.24,0,0,0,.94-1.2V24.09a1.6,1.6,0,0,0-.3-.92,7.5,7.5,0,0,1-1.3-3.5,1,1,0,0,0-.38-.67,2.87,2.87,0,0,1-1.24-2.36.58.58,0,0,1,.17-.41.63.63,0,0,1,.42-.16,1,1,0,0,0,1-.92v0l0-2.7a5,5,0,0,1,.32-1.74A5.2,5.2,0,0,1,17.9,7.31h.48V8.2a1,1,0,0,0,.86,1,4.78,4.78,0,0,1,3.27,2.06,2.67,2.67,0,0,1,.5,1.54v2.32a1,1,0,0,0,1,1h0a.58.58,0,0,1,.41.17.55.55,0,0,1,.16.39,2.9,2.9,0,0,1-1.19,2.31,1,1,0,0,0-.39.67,7.53,7.53,0,0,1-1.34,3.59,1.58,1.58,0,0,0-.32.93v2.82a1.23,1.23,0,0,0,.93,1.2,16.63,16.63,0,0,1,5.35,2.52A16,16,0,0,1,8.26,30.64Zm20.81-1.29a.34.34,0,0,0-.09-.08,18.35,18.35,0,0,0-5.78-2.85V24.27a9.26,9.26,0,0,0,1.61-4,4.79,4.79,0,0,0,1.64-3.61,2.47,2.47,0,0,0-.72-1.76,2.73,2.73,0,0,0-.81-.54V12.78a4.53,4.53,0,0,0-.87-2.7,7,7,0,0,0-3.76-2.7v-1a1,1,0,0,0-1-1H17.88c-3,0-5.33,2.37-6.23,4.57a6.54,6.54,0,0,0-.47,2.44l0,1.9a2.65,2.65,0,0,0-.84.53,2.47,2.47,0,0,0-.77,1.79,4.81,4.81,0,0,0,1.72,3.67,9.15,9.15,0,0,0,1.54,3.91V26.4a18.55,18.55,0,0,0-5.94,2.9.34.34,0,0,0-.09.08,16,16,0,1,1,22.61-.31l-.31.31Z"/></svg>