<svg width="31" height="20" xmlns="http://www.w3.org/2000/svg" viewBox="0 0 53.5 34.52"><title>br</title><path d="M49.33,0H4.17A4.12,4.12,0,0,0,0,4.17V30.35a4.13,4.13,0,0,0,4.17,4.17H49.33a4.13,4.13,0,0,0,4.17-4.17V4.17A4.18,4.18,0,0,0,49.33,0Zm2.5,30.35a2.45,2.45,0,0,1-2.5,2.5H4.17a2.45,2.45,0,0,1-2.5-2.5V4.17a2.45,2.45,0,0,1,2.5-2.5H49.33a2.45,2.45,0,0,1,2.5,2.5Zm-46-13.09L26.75,30.77,47.67,17.26,26.75,3.75ZM26.75,28.77,8.92,17.26,26.75,5.75,44.58,17.26ZM26,9.17h-.25a.79.79,0,0,0-.42.08c-.08,0-.25.09-.33.09a.31.31,0,0,0-.25.08,8.51,8.51,0,0,0-3.92,2.34v.08a9.48,9.48,0,0,0-1.08,1.42h0a1.83,1.83,0,0,1-.25.41c0,.09-.08.09-.08.17a1.11,1.11,0,0,0-.17.5v.08h0v.09a1.54,1.54,0,0,0-.17.58v.17a5,5,0,0,0-.16.58.46.46,0,0,1-.09.33c0,.17-.08.26-.08.42v.75a8.1,8.1,0,0,0,8.08,8.09h.92c.17,0,.42-.08.58-.08h.17a8.07,8.07,0,0,0,5.42-4v-.08a5.87,5.87,0,0,0,.25-.58c0-.09.08-.09.08-.17a1.24,1.24,0,0,0,.17-.5c0-.08.08-.17.08-.25h0c.08-.33.17-.67.25-1v-.25a4.91,4.91,0,0,0,.08-1.08,8.09,8.09,0,0,0-8.08-8.09A1.22,1.22,0,0,0,26,9.17Zm-5.67,8.09a2.61,2.61,0,0,1,.09-.83v-.17c.08-.25.08-.5.16-.84h3a1,1,0,0,1,.5.09.54.54,0,0,1,.34.08c.16,0,.33.08.5.08s.25.09.33.09.33.08.5.08.25.08.33.08a3.19,3.19,0,0,1,.42.09c.08,0,.25.08.33.08s.25.08.42.17.25.08.33.08.25.09.42.17.25.08.33.17.25.08.42.16.25.08.33.17.25.08.34.16.16.09.33.17a.59.59,0,0,0,.33.17c.09.08.17.08.34.17a.63.63,0,0,0,.33.16c.08.09.17.09.25.17a1.18,1.18,0,0,0,.33.25c.09.08.17.17.25.17a3,3,0,0,1,.25.25c.09.08.17.16.25.16l.25.25.25.25.09.09v.08c-.09.25-.25.5-.34.75-.08.08-.08.17-.16.25s-.17.25-.25.42a2.18,2.18,0,0,0-.42.58l-.25.25-.33.33c-.09.09-.17.09-.17.17a1.91,1.91,0,0,1-.67.42c-.08.08-.16.08-.33.17s-.25.08-.42.16a1.07,1.07,0,0,1-.5.17c-.08,0-.16.08-.33.08a2.26,2.26,0,0,1-.75.17H27.5c-.25,0-.58.08-.83.08A6.11,6.11,0,0,1,20.33,17.26Zm12.84,0v.33l-.09-.08a9.64,9.64,0,0,0-1-.75h0A7.93,7.93,0,0,0,31,16.09a.32.32,0,0,1-.17-.08c-.33-.17-.75-.42-1.16-.59-.09,0-.17-.08-.25-.08l-1.25-.5H28c-.42-.17-.92-.25-1.33-.42-.09,0-.09,0-.17-.08l-1.42-.25a.32.32,0,0,1-.25-.08,8.51,8.51,0,0,0-1.5-.17h-.25c-.5,0-1.08-.08-1.58-.08h-.17A6.54,6.54,0,0,1,25.08,11h.09a1.29,1.29,0,0,1,.58-.09h.17c.25,0,.5-.08.75-.08A6.39,6.39,0,0,1,33.17,17.26Z"/></svg>