<svg width="31" height="20" xmlns="http://www.w3.org/2000/svg" viewBox="0 0 52.54 33.9"><title>us</title><path d="M48.45,0H4.09A4.06,4.06,0,0,0,0,4.1H0V29.88H0a4.09,4.09,0,0,0,4.09,4H48.45a4.09,4.09,0,0,0,4.09-4h0V4.19h0A4.13,4.13,0,0,0,48.45,0ZM24.72,9.69H50.91v2.38H24.72ZM23.08,8V20.19H1.64V4.1A2.41,2.41,0,0,1,4.09,1.64h19V8Zm1.64,9.77H50.91v2.38H24.72Zm0-16.17H48.45a2.67,2.67,0,0,1,2.29,1.48h0c.09.16.09.24.17.41v.41H24.72ZM1.64,28.32V25.94H50.91v2.38Zm46.81,4H4.09A2.45,2.45,0,0,1,1.64,30H50.83A2.39,2.39,0,0,1,48.45,32.34Zm2.46-8H1.64V21.91H50.91Zm0-8.13H24.72V13.79H50.91Zm0-8.13H24.72V5.66H50.91Z"/></svg>