<svg width="31" height="22" xmlns="http://www.w3.org/2000/svg" viewBox="0 0 47.27 33.56"><title>es</title><path d="M.76,0H46.5a.78.78,0,0,1,.77.8v32a.78.78,0,0,1-.77.8H.76a.78.78,0,0,1-.76-.8V.8A.78.78,0,0,1,.76,0ZM6.49,13h5.72a.77.77,0,0,1,.74.8v3.56a3.33,3.33,0,0,1-.89,2.29h0a3,3,0,0,1-2.18.93H8.8a3,3,0,0,1-2.16-.93h0a3.33,3.33,0,0,1-.9-2.29V13.79A.78.78,0,0,1,6.49,13Zm4.95,1.6H7.25v2.76A1.65,1.65,0,0,0,7.7,18.5h0A1.54,1.54,0,0,0,8.8,19H9.88A1.54,1.54,0,0,0,11,18.5h0a1.66,1.66,0,0,0,.46-1.15ZM1.53,8H45.74V1.6H1.53Zm44.21,1.6H1.53V24H45.74Zm0,16H1.53V32H45.74Z"/></svg>