<svg xmlns="http://www.w3.org/2000/svg" viewBox="0 0 21.39 35.64"><title>anexo</title><path d="M20.26,12.07a1.14,1.14,0,0,0-1.12,1.15v11.5a8.53,8.53,0,0,1-8.45,8.62,8.53,8.53,0,0,1-8.44-8.62V8.62A6.26,6.26,0,0,1,8.44,2.3a6.26,6.26,0,0,1,6.19,6.32V24.15a3.94,3.94,0,1,1-7.88,0h0V13.22a1.13,1.13,0,1,0-2.25,0V24.15a6.26,6.26,0,0,0,6.19,6.32,6.26,6.26,0,0,0,6.19-6.32V8.62A8.53,8.53,0,0,0,8.44,0,8.53,8.53,0,0,0,0,8.62v16.1A10.81,10.81,0,0,0,10.69,35.64a10.81,10.81,0,0,0,10.7-10.92V13.22A1.15,1.15,0,0,0,20.26,12.07Z"/></svg>