<svg xmlns="http://www.w3.org/2000/svg" viewBox="0 0 33.01 33.01"><title>google</title><path d="M28.18,4.83A16.53,16.53,0,1,0,33,16.51,16.48,16.48,0,0,0,28.18,4.83Zm-11,15.72A4.94,4.94,0,0,1,14,22.05a5.61,5.61,0,0,1-5.87-3.53A5.6,5.6,0,0,1,12.4,11a5.36,5.36,0,0,1,4.52,1.24,1.42,1.42,0,0,0,.13.12L15.42,14a3.08,3.08,0,0,0-1.4-.72,3.28,3.28,0,0,0-3.66,1.84,3,3,0,0,0-.21.76,3.26,3.26,0,0,0,2.67,3.89A2.87,2.87,0,0,0,16.18,18a2.28,2.28,0,0,0,.1-.36h-3c0-.73,0-1.44,0-2.14,0-.05.11-.13.18-.13.34,0,.69,0,1,0,1.22,0,2.43,0,3.65,0,.28,0,.4.06.44.36A5.72,5.72,0,0,1,17.21,20.55Zm8.08-3.62H23.35v1.94H21.93V16.93H20V15.51h1.95V13.56h1.42v1.95h1.94Z"/></svg>