<svg xmlns="http://www.w3.org/2000/svg" viewBox="0 0 32.11 32.93"><title>play</title><path d="M16.05,0A16.26,16.26,0,0,0,0,16.46,16.26,16.26,0,0,0,16.05,32.93,16.27,16.27,0,0,0,32.11,16.46,16.26,16.26,0,0,0,16.05,0Zm9.61,26.32a13.35,13.35,0,0,1-19.21,0,14.19,14.19,0,0,1,0-19.71,13.35,13.35,0,0,1,19.21,0,14.19,14.19,0,0,1,0,19.71Zm-3.09-12L13.15,9.5h0a2.28,2.28,0,0,0-1-.25,2.31,2.31,0,0,0-1.62.67,2.41,2.41,0,0,0-.71,1.72v9.65A2.41,2.41,0,0,0,10.49,23a2.31,2.31,0,0,0,1.62.67,2.28,2.28,0,0,0,1-.25h0l9.42-4.83h0a2.31,2.31,0,0,0,1-.92,2.4,2.4,0,0,0,0-2.43A2.31,2.31,0,0,0,22.57,14.33ZM12.25,21.06V11.87l9,4.59Z"/></svg>